<?xml version="1.0" encoding="UTF-8" standalone="no"?>
<!-- Generator: Adobe Illustrator 19.0.0, SVG Export Plug-In . SVG Version: 6.00 Build 0)  -->

<svg
   xmlns:dc="http://purl.org/dc/elements/1.1/"
   xmlns:cc="http://creativecommons.org/ns#"
   xmlns:rdf="http://www.w3.org/1999/02/22-rdf-syntax-ns#"
   xmlns:svg="http://www.w3.org/2000/svg"
   xmlns="http://www.w3.org/2000/svg"
   xmlns:sodipodi="http://sodipodi.sourceforge.net/DTD/sodipodi-0.dtd"
   xmlns:inkscape="http://www.inkscape.org/namespaces/inkscape"
   version="1.1"
   id="Capa_1"
   x="0px"
   y="0px"
   viewBox="0 0 19.999999 19.999999"
   xml:space="preserve"
   sodipodi:docname="audio.svg"
   width="20"
   height="20"
   inkscape:version="0.92.2 (5c3e80d, 2017-08-06)"><metadata
     id="metadata43"><rdf:RDF><cc:Work
         rdf:about=""><dc:format>image/svg+xml</dc:format><dc:type
           rdf:resource="http://purl.org/dc/dcmitype/StillImage" /><dc:title></dc:title></cc:Work></rdf:RDF></metadata><defs
     id="defs41" /><sodipodi:namedview
     pagecolor="#ffffff"
     bordercolor="#666666"
     borderopacity="1"
     objecttolerance="10"
     gridtolerance="10"
     guidetolerance="10"
     inkscape:pageopacity="0"
     inkscape:pageshadow="2"
     inkscape:window-width="1366"
     inkscape:window-height="705"
     id="namedview39"
     showgrid="false"
     inkscape:zoom="0.45343123"
     inkscape:cx="-625.36172"
     inkscape:cy="-177.13919"
     inkscape:window-x="-8"
     inkscape:window-y="1072"
     inkscape:window-maximized="1"
     inkscape:current-layer="g6" /><g
     id="g6"
     transform="translate(0,-26.004002)"><g
       id="g840"
       style="fill:#ffffff;fill-opacity:1"
       transform="matrix(0.8034225,0,0,0.80350121,-0.05566301,9.0178702)"><g
         style="fill:#ffffff;fill-opacity:1"
         transform="matrix(0.30828549,0,0,0.30828549,5.372151,26.438253)"
         id="g853"><path
           style="fill:#ffffff;fill-opacity:1"
           d="m 30.569556,0.402 h -4.481353 l -13.551,11.6 H 0.0523474 v 21 l 12.4618556,-0.005 13.543,12.44 h 4.512353 z"
           id="path2"
           inkscape:connector-curvature="0"
           sodipodi:nodetypes="ccccccccc" /><path
           style="fill:#ffffff;fill-opacity:1"
           d="m 35.784344,9.5078125 0.05218,11.3849775 0.06696,14.611116 c 0.092,0 0.185344,-0.01306 0.277344,-0.03906 5.74,-1.66 9.75,-6.990891 9.75,-12.962891 0,-5.972 -4.01,-11.30289 -9.75,-12.9628905 -0.133,-0.03775 -0.267437,-0.046734 -0.396484,-0.03125 z"
           id="path4"
           inkscape:connector-curvature="0"
           sodipodi:nodetypes="ccccsccc" /></g><path
         inkscape:connector-curvature="0"
         id="path831"
         d="m 12.514814,21.140145 c -6.8604763,0 -12.44553161,5.585055 -12.44553161,12.445532 0,6.860476 5.58505531,12.445532 12.44553161,12.445532 6.860477,0 12.447971,-5.585056 12.447971,-12.445532 0,-6.860477 -5.587494,-12.445532 -12.447971,-12.445532 z m 0,2.265262 c 5.635336,0 10.18027,4.544935 10.18027,10.18027 0,5.635338 -4.544934,10.177831 -10.18027,10.177831 -5.6353354,0 -10.1778312,-4.542493 -10.1778312,-10.177831 0,-5.635335 4.5424958,-10.18027 10.1778312,-10.18027 z"
         style="color:#000000;font-style:normal;font-variant:normal;font-weight:normal;font-stretch:normal;font-size:medium;line-height:normal;font-family:sans-serif;font-variant-ligatures:normal;font-variant-position:normal;font-variant-caps:normal;font-variant-numeric:normal;font-variant-alternates:normal;font-feature-settings:normal;text-indent:0;text-align:start;text-decoration:none;text-decoration-line:none;text-decoration-style:solid;text-decoration-color:#000000;letter-spacing:normal;word-spacing:normal;text-transform:none;writing-mode:lr-tb;direction:ltr;text-orientation:mixed;dominant-baseline:auto;baseline-shift:baseline;text-anchor:start;white-space:normal;shape-padding:0;clip-rule:nonzero;display:inline;overflow:visible;visibility:visible;opacity:1;isolation:auto;mix-blend-mode:normal;color-interpolation:sRGB;color-interpolation-filters:linearRGB;solid-color:#000000;solid-opacity:1;vector-effect:none;fill:#ffffff;fill-opacity:1;fill-rule:nonzero;stroke:none;stroke-width:2.2669313;stroke-linecap:butt;stroke-linejoin:miter;stroke-miterlimit:4;stroke-dasharray:none;stroke-dashoffset:0;stroke-opacity:1;paint-order:fill markers stroke;color-rendering:auto;image-rendering:auto;shape-rendering:auto;text-rendering:auto;enable-background:accumulate" /></g></g><g
     id="g8"
     transform="translate(0,-26.004002)" /><g
     id="g10"
     transform="translate(0,-26.004002)" /><g
     id="g12"
     transform="translate(0,-26.004002)" /><g
     id="g14"
     transform="translate(0,-26.004002)" /><g
     id="g16"
     transform="translate(0,-26.004002)" /><g
     id="g18"
     transform="translate(0,-26.004002)" /><g
     id="g20"
     transform="translate(0,-26.004002)" /><g
     id="g22"
     transform="translate(0,-26.004002)" /><g
     id="g24"
     transform="translate(0,-26.004002)" /><g
     id="g26"
     transform="translate(0,-26.004002)" /><g
     id="g28"
     transform="translate(0,-26.004002)" /><g
     id="g30"
     transform="translate(0,-26.004002)" /><g
     id="g32"
     transform="translate(0,-26.004002)" /><g
     id="g34"
     transform="translate(0,-26.004002)" /><g
     id="g36"
     transform="translate(0,-26.004002)" /></svg>