<?xml version="1.0" encoding="UTF-8" standalone="no"?>
<!-- Generator: Adobe Illustrator 16.0.0, SVG Export Plug-In . SVG Version: 6.00 Build 0)  -->

<svg
   xmlns:dc="http://purl.org/dc/elements/1.1/"
   xmlns:cc="http://creativecommons.org/ns#"
   xmlns:rdf="http://www.w3.org/1999/02/22-rdf-syntax-ns#"
   xmlns:svg="http://www.w3.org/2000/svg"
   xmlns="http://www.w3.org/2000/svg"
   xmlns:sodipodi="http://sodipodi.sourceforge.net/DTD/sodipodi-0.dtd"
   xmlns:inkscape="http://www.inkscape.org/namespaces/inkscape"
   version="1.1"
   id="Capa_1"
   x="0px"
   y="0px"
   width="25"
   height="25"
   viewBox="0 0 25.000001 25.000001"
   xml:space="preserve"
   sodipodi:docname="brave.svg"
   inkscape:version="0.92.3 (2405546, 2018-03-11)"><metadata
     id="metadata41"><rdf:RDF><cc:Work
         rdf:about=""><dc:format>image/svg+xml</dc:format><dc:type
           rdf:resource="http://purl.org/dc/dcmitype/StillImage" /><dc:title></dc:title></cc:Work></rdf:RDF></metadata><defs
     id="defs39" /><sodipodi:namedview
     pagecolor="#ffffff"
     bordercolor="#666666"
     borderopacity="1"
     objecttolerance="10"
     gridtolerance="10"
     guidetolerance="10"
     inkscape:pageopacity="0"
     inkscape:pageshadow="2"
     inkscape:window-width="1366"
     inkscape:window-height="705"
     id="namedview37"
     showgrid="false"
     fit-margin-top="0"
     fit-margin-left="0"
     fit-margin-right="0"
     fit-margin-bottom="0"
     inkscape:zoom="8.0000001"
     inkscape:cx="29.166502"
     inkscape:cy="16.286782"
     inkscape:window-x="-8"
     inkscape:window-y="1072"
     inkscape:window-maximized="1"
     inkscape:current-layer="g842"
     showguides="true"
     inkscape:guide-bbox="true" /><g
     id="g6"
     transform="translate(-36.020453,-376.98627)" /><g
     id="g8"
     transform="translate(-36.020453,-376.98627)" /><g
     id="g10"
     transform="translate(-36.020453,-376.98627)" /><g
     id="g12"
     transform="translate(-36.020453,-376.98627)" /><g
     id="g14"
     transform="translate(-36.020453,-376.98627)" /><g
     id="g16"
     transform="translate(-36.020453,-376.98627)" /><g
     id="g18"
     transform="translate(-36.020453,-376.98627)" /><g
     id="g20"
     transform="translate(-36.020453,-376.98627)" /><g
     id="g22"
     transform="translate(-36.020453,-376.98627)" /><g
     id="g24"
     transform="translate(-36.020453,-376.98627)" /><g
     id="g26"
     transform="translate(-36.020453,-376.98627)" /><g
     id="g28"
     transform="translate(-36.020453,-376.98627)" /><g
     id="g30"
     transform="translate(-36.020453,-376.98627)" /><g
     id="g32"
     transform="translate(-36.020453,-376.98627)" /><g
     id="g34"
     transform="translate(-36.020453,-376.98627)" /><g
     id="g840"
     style="fill:#000000"
     transform="translate(-0.06445313,5.0117188)"><g
       transform="matrix(1.0054344,0,0,1.0054344,-0.05520384,-0.05563052)"
       id="g981"
       style="fill:#000000"><g
         id="g844"
         transform="matrix(0.05055527,-0.0010943,0.0016838,0.07778952,10.299454,9.260829)"
         style="fill:#000000"><g
           id="g899"
           style="fill:#000000"><g
             style="fill:#000000"
             id="g843"
             transform="matrix(19.771068,0.27812847,-0.42795642,12.849182,-199.66798,-121.85865)"><g
               transform="matrix(0.79748995,0,0,0.79756807,0.06760949,0.00571872)"
               style="fill:#000000;fill-opacity:1"
               id="g842"><path
                 style="color:#000000;font-style:normal;font-variant:normal;font-weight:normal;font-stretch:normal;font-size:medium;line-height:normal;font-family:sans-serif;font-variant-ligatures:normal;font-variant-position:normal;font-variant-caps:normal;font-variant-numeric:normal;font-variant-alternates:normal;font-feature-settings:normal;text-indent:0;text-align:start;text-decoration:none;text-decoration-line:none;text-decoration-style:solid;text-decoration-color:#000000;letter-spacing:normal;word-spacing:normal;text-transform:none;writing-mode:lr-tb;direction:ltr;text-orientation:mixed;dominant-baseline:auto;baseline-shift:baseline;text-anchor:start;white-space:normal;shape-padding:0;clip-rule:nonzero;display:inline;overflow:visible;visibility:visible;opacity:1;isolation:auto;mix-blend-mode:normal;color-interpolation:sRGB;color-interpolation-filters:linearRGB;solid-color:#000000;solid-opacity:1;vector-effect:none;fill:#ffffff;fill-opacity:1;fill-rule:nonzero;stroke:none;stroke-width:2.83931398;stroke-linecap:butt;stroke-linejoin:miter;stroke-miterlimit:4;stroke-dasharray:none;stroke-dashoffset:0;stroke-opacity:1;paint-order:fill markers stroke;color-rendering:auto;image-rendering:auto;shape-rendering:auto;text-rendering:auto;enable-background:accumulate"
                 d="m 15.650868,-6.1875834 c -8.5926937,0 -15.58641457,6.99523868 -15.58641457,15.5879331 10e-9,8.5926933 6.99372087,15.5879313 15.58641457,15.5879313 8.592694,0 15.592504,-6.995238 15.592504,-15.5879313 0,-8.59269442 -6.99981,-15.5879331 -15.592504,-15.5879331 z m -0.09743,1.4309235 A 14.176666,14.175276 2.1278586e-4 0 1 29.730099,9.4186159 14.176666,14.175276 2.1278586e-4 0 1 15.553434,23.593892 14.176666,14.175276 2.1278586e-4 0 1 1.3767693,9.4186159 14.176666,14.175276 2.1278586e-4 0 1 15.553434,-4.7566599 Z"
                 id="path831"
                 inkscape:connector-curvature="0" /><g
                 aria-label="B"
                 transform="scale(1.000049,0.99995101)"
                 style="font-style:normal;font-variant:normal;font-weight:bold;font-stretch:normal;font-size:24.50912476px;line-height:1.25;font-family:Roboto;-inkscape-font-specification:'Roboto Bold';font-variant-ligatures:normal;font-variant-caps:normal;font-variant-numeric:normal;font-feature-settings:normal;text-align:center;letter-spacing:0px;word-spacing:0px;writing-mode:lr-tb;text-anchor:middle;fill:#ffffff;fill-opacity:1;stroke:none;stroke-width:0.61272818"
                 id="text842"><path
                   d="M 9.6464729,18.113037 V 0.68858123 h 6.1033461 q 3.171347,0 4.810873,1.22066927 1.639527,1.208702 1.639527,3.5543018 0,1.280506 -0.658204,2.2618284 -0.658204,0.9693551 -1.831004,1.4241142 1.340343,0.3350857 2.106253,1.3523101 0.777877,1.017224 0.777877,2.489208 0,2.513143 -1.603624,3.805616 -1.603624,1.292473 -4.571526,1.316408 z M 13.236677,10.52574 v 4.703167 h 3.075608 q 1.268538,0 1.974612,-0.598368 0.71804,-0.610334 0.71804,-1.675428 0,-2.393469 -2.47724,-2.429371 z m 0,-2.5370777 h 2.656751 q 2.716587,-0.047869 2.716587,-2.1660896 0,-1.1847673 -0.694106,-1.6993631 -0.682139,-0.5265633 -2.16609,-0.5265633 h -2.513142 z"
                   style="font-style:normal;font-variant:normal;font-weight:bold;font-stretch:normal;font-family:Roboto;-inkscape-font-specification:'Roboto Bold';stroke-width:0.61272818;fill:#ffffff"
                   id="path844"
                   inkscape:connector-curvature="0" /></g></g></g><g
             id="g887"
             style="fill:#000000"
             transform="matrix(1.25,0,0,1.25,51.461636,-33.582567)" /></g></g></g></g></svg>