<?xml version="1.0" encoding="UTF-8" standalone="no"?>
<!-- Generator: Adobe Illustrator 16.0.0, SVG Export Plug-In . SVG Version: 6.00 Build 0)  -->

<svg
   xmlns:dc="http://purl.org/dc/elements/1.1/"
   xmlns:cc="http://creativecommons.org/ns#"
   xmlns:rdf="http://www.w3.org/1999/02/22-rdf-syntax-ns#"
   xmlns:svg="http://www.w3.org/2000/svg"
   xmlns="http://www.w3.org/2000/svg"
   xmlns:sodipodi="http://sodipodi.sourceforge.net/DTD/sodipodi-0.dtd"
   xmlns:inkscape="http://www.inkscape.org/namespaces/inkscape"
   version="1.1"
   id="Capa_1"
   x="0px"
   y="0px"
   width="25"
   height="25"
   viewBox="0 0 25 25.000001"
   xml:space="preserve"
   sodipodi:docname="cancel.svg"
   inkscape:version="0.92.3 (2405546, 2018-03-11)"><metadata
     id="metadata41"><rdf:RDF><cc:Work
         rdf:about=""><dc:format>image/svg+xml</dc:format><dc:type
           rdf:resource="http://purl.org/dc/dcmitype/StillImage" /><dc:title></dc:title></cc:Work></rdf:RDF></metadata><defs
     id="defs39" /><sodipodi:namedview
     pagecolor="#ffffff"
     bordercolor="#666666"
     borderopacity="1"
     objecttolerance="10"
     gridtolerance="10"
     guidetolerance="10"
     inkscape:pageopacity="0"
     inkscape:pageshadow="2"
     inkscape:window-width="1920"
     inkscape:window-height="1017"
     id="namedview37"
     showgrid="false"
     inkscape:zoom="14.278719"
     inkscape:cx="6.6816839"
     inkscape:cy="5.640197"
     inkscape:window-x="-4"
     inkscape:window-y="-8"
     inkscape:window-maximized="1"
     inkscape:current-layer="Capa_1"
     inkscape:lockguides="true" /><g
     id="g6"
     transform="translate(0,-503.89899)" /><g
     id="g8"
     transform="translate(0,-503.89899)" /><g
     id="g10"
     transform="translate(0,-503.89899)" /><g
     id="g12"
     transform="translate(0,-503.89899)" /><g
     id="g14"
     transform="translate(0,-503.89899)" /><g
     id="g16"
     transform="translate(0,-503.89899)" /><g
     id="g18"
     transform="translate(0,-503.89899)" /><g
     id="g20"
     transform="translate(0,-503.89899)" /><g
     id="g22"
     transform="translate(0,-503.89899)" /><g
     id="g24"
     transform="translate(0,-503.89899)" /><g
     id="g26"
     transform="translate(0,-503.89899)" /><g
     id="g28"
     transform="translate(0,-503.89899)" /><g
     id="g30"
     transform="translate(0,-503.89899)" /><g
     id="g32"
     transform="translate(0,-503.89899)" /><g
     id="g34"
     transform="translate(0,-503.89899)" /><g
     id="g841"
     style="fill:#ffffff"><path
       inkscape:connector-curvature="0"
       id="path847-7"
       d="M 18.447026,4.6099835 12.500001,10.557009 6.5529744,4.6099835 4.6099835,6.5529745 10.55701,12.5 4.6652191,18.39179 6.60821,20.334781 12.500001,14.44299 18.447024,20.390016 20.390017,18.447024 14.44299,12.5 20.390017,6.5529745 Z"
       style="color:#000000;font-style:normal;font-variant:normal;font-weight:normal;font-stretch:normal;font-size:medium;line-height:normal;font-family:sans-serif;font-variant-ligatures:normal;font-variant-position:normal;font-variant-caps:normal;font-variant-numeric:normal;font-variant-alternates:normal;font-feature-settings:normal;text-indent:0;text-align:start;text-decoration:none;text-decoration-line:none;text-decoration-style:solid;text-decoration-color:#000000;letter-spacing:normal;word-spacing:normal;text-transform:none;writing-mode:lr-tb;direction:ltr;text-orientation:mixed;dominant-baseline:auto;baseline-shift:baseline;text-anchor:start;white-space:normal;shape-padding:0;clip-rule:nonzero;display:inline;overflow:visible;visibility:visible;opacity:1;isolation:auto;mix-blend-mode:normal;color-interpolation:sRGB;color-interpolation-filters:linearRGB;solid-color:#000000;solid-opacity:1;vector-effect:none;fill:#ffffff;fill-opacity:1;fill-rule:nonzero;stroke:none;stroke-width:2.46415377;stroke-linecap:round;stroke-linejoin:round;stroke-miterlimit:4;stroke-dasharray:none;stroke-dashoffset:0;stroke-opacity:1;color-rendering:auto;image-rendering:auto;shape-rendering:auto;text-rendering:auto;enable-background:accumulate" /><path
       inkscape:connector-curvature="0"
       id="rect829-1"
       d="m 1.8134765,0.032205 c -0.97407898,9.9892e-4 -1.780251,0.80717119 -1.78125,1.7812499 v 0.00195 21.3710931 0.002 c 9.9928e-4,0.974081 0.80935826,1.778299 1.78125,1.779297 0,0 0.00195,0 0.00195,0 H 23.18457 c 0,0 0.002,0 0.002,0 0.97189,-9.98e-4 1.78025,-0.805218 1.78125,-1.779297 0,0 0,-0.002 0,-0.002 V 1.815408 c 0,0 0,-0.00195 0,-0.00195 -0.001,-0.97407704 -0.807171,-1.78025071 -1.78125,-1.7812499 H 23.18457 1.8154296 Z M 2.7373046,1.1083768 H 22.262694 c 0.889958,9.129e-4 1.627993,0.7389505 1.628907,1.6289062 v 19.525391 c 0,0 0,0.002 0,0.002 -9.15e-4,0.889957 -0.74095,1.626041 -1.628907,1.626953 H 2.7373046 c -0.887959,-9.59e-4 -1.6279932,-0.737041 -1.6289062,-1.627 v -0.002 V 2.737283 C 1.1093112,1.8473258 1.8473472,1.1092894 2.7373046,1.1083768 Z"
       style="color:#000000;font-style:normal;font-variant:normal;font-weight:normal;font-stretch:normal;font-size:medium;line-height:normal;font-family:sans-serif;font-variant-ligatures:normal;font-variant-position:normal;font-variant-caps:normal;font-variant-numeric:normal;font-variant-alternates:normal;font-feature-settings:normal;text-indent:0;text-align:start;text-decoration:none;text-decoration-line:none;text-decoration-style:solid;text-decoration-color:#000000;letter-spacing:normal;word-spacing:normal;text-transform:none;writing-mode:lr-tb;direction:ltr;text-orientation:mixed;dominant-baseline:auto;baseline-shift:baseline;text-anchor:start;white-space:normal;shape-padding:0;clip-rule:nonzero;display:inline;overflow:visible;visibility:visible;opacity:1;isolation:auto;mix-blend-mode:normal;color-interpolation:sRGB;color-interpolation-filters:linearRGB;solid-color:#000000;solid-opacity:1;vector-effect:none;fill:#ffffff;fill-opacity:1;fill-rule:nonzero;stroke:none;stroke-width:1.78291297;stroke-linecap:butt;stroke-linejoin:round;stroke-miterlimit:4;stroke-dasharray:none;stroke-dashoffset:0;stroke-opacity:1;paint-order:fill markers stroke;color-rendering:auto;image-rendering:auto;shape-rendering:auto;text-rendering:auto;enable-background:accumulate" /></g></svg>