<?xml version="1.0" encoding="UTF-8" standalone="no"?>
<!-- Generator: Adobe Illustrator 18.0.0, SVG Export Plug-In . SVG Version: 6.00 Build 0)  -->

<svg
   xmlns:dc="http://purl.org/dc/elements/1.1/"
   xmlns:cc="http://creativecommons.org/ns#"
   xmlns:rdf="http://www.w3.org/1999/02/22-rdf-syntax-ns#"
   xmlns:svg="http://www.w3.org/2000/svg"
   xmlns="http://www.w3.org/2000/svg"
   xmlns:sodipodi="http://sodipodi.sourceforge.net/DTD/sodipodi-0.dtd"
   xmlns:inkscape="http://www.inkscape.org/namespaces/inkscape"
   version="1.1"
   id="Capa_1"
   x="0px"
   y="0px"
   viewBox="0 0 24.999999 24.999999"
   xml:space="preserve"
   sodipodi:docname="clear.svg"
   inkscape:version="0.92.3 (2405546, 2018-03-11)"
   width="25"
   height="25"><metadata
     id="metadata47"><rdf:RDF><cc:Work
         rdf:about=""><dc:format>image/svg+xml</dc:format><dc:type
           rdf:resource="http://purl.org/dc/dcmitype/StillImage" /><dc:title></dc:title></cc:Work></rdf:RDF></metadata><defs
     id="defs45"><pattern
       y="0"
       x="0"
       height="6"
       width="6"
       patternUnits="userSpaceOnUse"
       id="EMFhbasepattern" /></defs><sodipodi:namedview
     pagecolor="#ffffff"
     bordercolor="#666666"
     borderopacity="1"
     objecttolerance="10"
     gridtolerance="10"
     guidetolerance="10"
     inkscape:pageopacity="0"
     inkscape:pageshadow="2"
     inkscape:window-width="1920"
     inkscape:window-height="1017"
     id="namedview43"
     showgrid="false"
     inkscape:zoom="12.751036"
     inkscape:cx="-14.492438"
     inkscape:cy="5.3173275"
     inkscape:window-x="-4"
     inkscape:window-y="-8"
     inkscape:window-maximized="1"
     inkscape:current-layer="Capa_1" /><g
     id="g12"
     transform="translate(0,-393.79501)" /><g
     id="g14"
     transform="translate(0,-393.79501)" /><g
     id="g16"
     transform="translate(0,-393.79501)" /><g
     id="g18"
     transform="translate(0,-393.79501)" /><g
     id="g20"
     transform="translate(0,-393.79501)" /><g
     id="g22"
     transform="translate(0,-393.79501)" /><g
     id="g24"
     transform="translate(0,-393.79501)" /><g
     id="g26"
     transform="translate(0,-393.79501)" /><g
     id="g28"
     transform="translate(0,-393.79501)" /><g
     id="g30"
     transform="translate(0,-393.79501)" /><g
     id="g32"
     transform="translate(0,-393.79501)" /><g
     id="g34"
     transform="translate(0,-393.79501)" /><g
     id="g36"
     transform="translate(0,-393.79501)" /><g
     id="g38"
     transform="translate(0,-393.79501)" /><g
     id="g40"
     transform="translate(0,-393.79501)" /><g
     id="g872"
     style="fill:#ffffff"><path
       inkscape:connector-curvature="0"
       style="fill:#ffffff;fill-opacity:1;fill-rule:nonzero;stroke:none"
       d="m 1.818556,0.067456 c -0.95999293,0 -1.759987,0.799994 -1.759987,1.759987 v 0 21.359842 0 c 0,1.039992 0.79999407,1.839986 1.759987,1.839986 v 0 h 21.359842 v 0 c 1.039992,0 1.839986,-0.799994 1.839986,-1.839986 v 0 -21.359842 0 c 0,-0.959993 -0.799994,-1.759987 -1.839986,-1.759987 v 0 z M 2.7785489,1.107448 H 22.298404 c 0.879994,0 1.599988,0.799994 1.599988,1.679988 v 19.519855 0 c 0,0.879994 -0.719994,1.599988 -1.599988,1.599988 H 2.7785489 c -0.8799935,0 -1.6799876,-0.719994 -1.6799876,-1.599988 v 0 -19.519855 c 0,-0.879994 0.7999941,-1.679988 1.6799876,-1.679988 z"
       id="path853" /><g
       style="fill:#ffffff"
       transform="matrix(0.04374901,0,0,0.04374901,3.3162691,2.0662021)"
       id="g10"><g
         style="fill:#ffffff"
         id="g8"><path
           sodipodi:nodetypes="ccccc"
           inkscape:connector-curvature="0"
           id="rect2"
           d="M 175.049,88.525002 H 343.94 V 259.44963 H 175.049 Z"
           style="fill:#ffffff"
           transform="matrix(0.7071,0.7071,-0.7071,0.7071,209.2187,-128.311)" /><path
           inkscape:connector-curvature="0"
           id="path6"
           transform="matrix(14.406554,0,0,14.406554,29.699767,58.360537)"
           d="m 5.7265625,10.960938 -5.77734375,5.777343 3.71484375,3.714844 H 12.814453 L 14.015625,19.25 Z"
           style="fill:#ffffff;stroke-width:0.06941285" /></g></g><path
       sodipodi:nodetypes="ccccc"
       style="color:#000000;font-style:normal;font-variant:normal;font-weight:normal;font-stretch:normal;font-size:medium;line-height:normal;font-family:sans-serif;font-variant-ligatures:normal;font-variant-position:normal;font-variant-caps:normal;font-variant-numeric:normal;font-variant-alternates:normal;font-feature-settings:normal;text-indent:0;text-align:start;text-decoration:none;text-decoration-line:none;text-decoration-style:solid;text-decoration-color:#000000;letter-spacing:normal;word-spacing:normal;text-transform:none;writing-mode:lr-tb;direction:ltr;text-orientation:mixed;dominant-baseline:auto;baseline-shift:baseline;text-anchor:start;white-space:normal;shape-padding:0;clip-rule:nonzero;display:inline;overflow:visible;visibility:visible;opacity:1;isolation:auto;mix-blend-mode:normal;color-interpolation:sRGB;color-interpolation-filters:linearRGB;solid-color:#000000;solid-opacity:1;vector-effect:none;fill:#ffffff;fill-opacity:1;fill-rule:nonzero;stroke:none;stroke-width:1.4324311;stroke-linecap:round;stroke-linejoin:round;stroke-miterlimit:4;stroke-dasharray:none;stroke-dashoffset:0;stroke-opacity:1;color-rendering:auto;image-rendering:auto;shape-rendering:auto;text-rendering:auto;enable-background:accumulate"
       d="M 20.384004,20.381866 H 4.6150945 v -1.14814 H 20.384004 Z"
       id="path847"
       inkscape:connector-curvature="0" /></g></svg>