<?xml version="1.0" encoding="UTF-8" standalone="no"?>
<!-- Generator: Adobe Illustrator 16.0.0, SVG Export Plug-In . SVG Version: 6.00 Build 0)  -->

<svg
   xmlns:dc="http://purl.org/dc/elements/1.1/"
   xmlns:cc="http://creativecommons.org/ns#"
   xmlns:rdf="http://www.w3.org/1999/02/22-rdf-syntax-ns#"
   xmlns:svg="http://www.w3.org/2000/svg"
   xmlns="http://www.w3.org/2000/svg"
   xmlns:sodipodi="http://sodipodi.sourceforge.net/DTD/sodipodi-0.dtd"
   xmlns:inkscape="http://www.inkscape.org/namespaces/inkscape"
   version="1.1"
   id="Capa_1"
   x="0px"
   y="0px"
   width="25"
   height="25"
   viewBox="0 0 24.999999 24.999999"
   xml:space="preserve"
   sodipodi:docname="collapse.svg"
   inkscape:version="0.92.3 (2405546, 2018-03-11)"><metadata
     id="metadata41"><rdf:RDF><cc:Work
         rdf:about=""><dc:format>image/svg+xml</dc:format><dc:type
           rdf:resource="http://purl.org/dc/dcmitype/StillImage" /><dc:title></dc:title></cc:Work></rdf:RDF></metadata><defs
     id="defs39" /><sodipodi:namedview
     pagecolor="#ffffff"
     bordercolor="#666666"
     borderopacity="1"
     objecttolerance="10"
     gridtolerance="10"
     guidetolerance="10"
     inkscape:pageopacity="0"
     inkscape:pageshadow="2"
     inkscape:window-width="1920"
     inkscape:window-height="1017"
     id="namedview37"
     showgrid="false"
     inkscape:zoom="11.313709"
     inkscape:cx="-4.5098609"
     inkscape:cy="10.334791"
     inkscape:window-x="-4"
     inkscape:window-y="-8"
     inkscape:window-maximized="1"
     inkscape:current-layer="g4" /><g
     id="g4"
     transform="matrix(0.90758345,0,0,0.68067952,-6.5616482,0.03403543)"
     style="fill:#000000"><g
       id="g845"
       style="fill:#ffffff"><g
         transform="translate(-0.0566043,-0.02500013)"
         id="g839"
         style="fill:#ffffff"><path
           d="m 12.270633,19.676017 7.789599,10.386256 0.01113,-10.318121 z"
           id="path2"
           inkscape:connector-curvature="0"
           sodipodi:nodetypes="cccc"
           style="fill:#ffffff;stroke-width:0.5035727" /><path
           d="M 22.08278,16.969283 22.065734,6.6157268 29.847855,16.992011 Z"
           id="path2-3"
           inkscape:connector-curvature="0"
           sodipodi:nodetypes="cccc"
           style="fill:#ffffff;stroke-width:0.5035727" /></g><path
         inkscape:connector-curvature="0"
         id="rect829-1"
         d="M 9.227939,-0.00268912 C 8.1546724,-0.00122158 7.2664102,1.1831423 7.2653095,2.614181 v 0.00286 31.396703 0.0029 c 0.0011,1.431042 0.8917728,2.612534 1.9626295,2.614001 0,0 0.00215,0 0.00215,0 h 23.545098 c 0,0 0.0022,0 0.0022,0 1.070854,-0.0015 1.961527,-1.182962 1.96263,-2.614001 0,0 0,-0.0029 0,-0.0029 V 2.6170503 c 0,0 0,-0.00286 0,-0.00286 -0.0011,-1.4310362 -0.889363,-2.61540213 -1.96263,-2.61687006 h -0.0022 -23.5450961 z m 1.017899,1.58102562 h 21.513603 c 0.980579,0.00134 1.793766,1.0856071 1.794773,2.393059 V 32.656541 c 0,0 0,0.0029 0,0.0029 -0.001,1.307454 -0.816398,2.38885 -1.794773,2.39019 H 10.245838 C 9.2674605,35.04826 8.4520708,33.966867 8.4510648,32.65941 V 32.65651 3.9714335 c 0.00101,-1.3074541 0.8141938,-2.3917182 1.7947732,-2.393059 z"
         style="color:#000000;font-style:normal;font-variant:normal;font-weight:normal;font-stretch:normal;font-size:medium;line-height:normal;font-family:sans-serif;font-variant-ligatures:normal;font-variant-position:normal;font-variant-caps:normal;font-variant-numeric:normal;font-variant-alternates:normal;font-feature-settings:normal;text-indent:0;text-align:start;text-decoration:none;text-decoration-line:none;text-decoration-style:solid;text-decoration-color:#000000;letter-spacing:normal;word-spacing:normal;text-transform:none;writing-mode:lr-tb;direction:ltr;text-orientation:mixed;dominant-baseline:auto;baseline-shift:baseline;text-anchor:start;white-space:normal;shape-padding:0;clip-rule:nonzero;display:inline;overflow:visible;visibility:visible;opacity:1;isolation:auto;mix-blend-mode:normal;color-interpolation:sRGB;color-interpolation-filters:linearRGB;solid-color:#000000;solid-opacity:1;vector-effect:none;fill:#ffffff;fill-opacity:1;fill-rule:nonzero;stroke:none;stroke-width:2.2683785;stroke-linecap:butt;stroke-linejoin:round;stroke-miterlimit:4;stroke-dasharray:none;stroke-dashoffset:0;stroke-opacity:1;paint-order:fill markers stroke;color-rendering:auto;image-rendering:auto;shape-rendering:auto;text-rendering:auto;enable-background:accumulate" /></g></g><g
     id="g6"
     transform="translate(0,-11.678001)" /><g
     id="g8"
     transform="translate(0,-11.678001)" /><g
     id="g10"
     transform="translate(0,-11.678001)" /><g
     id="g12"
     transform="translate(0,-11.678001)" /><g
     id="g14"
     transform="translate(0,-11.678001)" /><g
     id="g16"
     transform="translate(0,-11.678001)" /><g
     id="g18"
     transform="translate(0,-11.678001)" /><g
     id="g20"
     transform="translate(0,-11.678001)" /><g
     id="g22"
     transform="translate(0,-11.678001)" /><g
     id="g24"
     transform="translate(0,-11.678001)" /><g
     id="g26"
     transform="translate(0,-11.678001)" /><g
     id="g28"
     transform="translate(0,-11.678001)" /><g
     id="g30"
     transform="translate(0,-11.678001)" /><g
     id="g32"
     transform="translate(0,-11.678001)" /><g
     id="g34"
     transform="translate(0,-11.678001)" /></svg>