<?xml version="1.0" encoding="UTF-8" standalone="no"?>
<!-- Generator: Adobe Illustrator 16.0.0, SVG Export Plug-In . SVG Version: 6.00 Build 0)  -->

<svg
   xmlns:dc="http://purl.org/dc/elements/1.1/"
   xmlns:cc="http://creativecommons.org/ns#"
   xmlns:rdf="http://www.w3.org/1999/02/22-rdf-syntax-ns#"
   xmlns:svg="http://www.w3.org/2000/svg"
   xmlns="http://www.w3.org/2000/svg"
   xmlns:sodipodi="http://sodipodi.sourceforge.net/DTD/sodipodi-0.dtd"
   xmlns:inkscape="http://www.inkscape.org/namespaces/inkscape"
   version="1.1"
   id="Capa_1"
   x="0px"
   y="0px"
   width="25"
   height="25"
   viewBox="0 0 25.000001 25.000002"
   xml:space="preserve"
   sodipodi:docname="emergency_1.svg"
   inkscape:version="0.92.3 (2405546, 2018-03-11)"><metadata
     id="metadata41"><rdf:RDF><cc:Work
         rdf:about=""><dc:format>image/svg+xml</dc:format><dc:type
           rdf:resource="http://purl.org/dc/dcmitype/StillImage" /><dc:title></dc:title></cc:Work></rdf:RDF></metadata><defs
     id="defs39"><pattern
       y="0"
       x="0"
       height="6"
       width="6"
       patternUnits="userSpaceOnUse"
       id="EMFhbasepattern" /></defs><sodipodi:namedview
     pagecolor="#ffffff"
     bordercolor="#666666"
     borderopacity="1"
     objecttolerance="10"
     gridtolerance="10"
     guidetolerance="10"
     inkscape:pageopacity="0"
     inkscape:pageshadow="2"
     inkscape:window-width="1366"
     inkscape:window-height="705"
     id="namedview37"
     showgrid="false"
     inkscape:zoom="12.177123"
     inkscape:cx="7.4211575"
     inkscape:cy="8.3057208"
     inkscape:window-x="67"
     inkscape:window-y="1077"
     inkscape:window-maximized="1"
     inkscape:current-layer="g894"
     units="px"
     showguides="false" /><g
     id="g6"
     transform="translate(0,-413.53299)" /><g
     id="g8"
     transform="translate(0,-413.53299)" /><g
     id="g10"
     transform="translate(0,-413.53299)" /><g
     id="g12"
     transform="translate(0,-413.53299)" /><g
     id="g14"
     transform="translate(0,-413.53299)" /><g
     id="g16"
     transform="translate(0,-413.53299)" /><g
     id="g18"
     transform="translate(0,-413.53299)" /><g
     id="g20"
     transform="translate(0,-413.53299)" /><g
     id="g22"
     transform="translate(0,-413.53299)" /><g
     id="g24"
     transform="translate(0,-413.53299)" /><g
     id="g26"
     transform="translate(0,-413.53299)" /><g
     id="g28"
     transform="translate(0,-413.53299)" /><g
     id="g30"
     transform="translate(0,-413.53299)" /><g
     id="g32"
     transform="translate(0,-413.53299)" /><g
     id="g34"
     transform="translate(0,-413.53299)" /><g
     id="g866"
     style="fill:#ffffff"><g
       id="g894"
       transform="translate(0.16381454,0.01039076)"><g
         id="g857"><path
           transform="translate(-0.16381454,-0.01039076)"
           id="path850"
           d="m 1.7547292,0.0134 c -0.95999293,0 -1.75998708,0.8 -1.75998708,1.76 v 0 21.3598 0 c 0,1.04 0.79999415,1.84 1.75998708,1.84 v 0 H 23.114571 v 0 c 1.039992,0 1.839986,-0.8 1.839986,-1.84 v 0 -21.3598 0 c 0,-0.96 -0.799994,-1.76 -1.839986,-1.76 v 0 z m 0.9599929,1.04 H 22.234577 c 0.879994,0 1.599988,0.8 1.599988,1.68 v 19.5198 0 c 0,0.88 -0.719994,1.6 -1.599988,1.6 H 2.7147221 c -0.8799935,0 -1.6799876,-0.72 -1.6799876,-1.6 v 0 -19.5198 c 0,-0.88 0.7999941,-1.68 1.6799876,-1.68 z"
           style="fill:#ffffff;fill-opacity:1;fill-rule:nonzero;stroke:none"
           inkscape:connector-curvature="0" /><path
           inkscape:connector-curvature="0"
           id="path834"
           d="m 8.4712715,6.6246939 a 2,2 0 0 1 -2,2 2,2 0 0 1 -2,-2 2,2 0 0 1 2,-2 2,2 0 0 1 2,2 z"
           style="opacity:1;vector-effect:none;fill:#ffffff;fill-opacity:1;stroke:none;stroke-width:1.32034528;stroke-linecap:round;stroke-linejoin:round;stroke-miterlimit:4;stroke-dasharray:none;stroke-dashoffset:0;stroke-opacity:1;paint-order:fill markers stroke" /><path
           inkscape:connector-curvature="0"
           id="path834-4"
           d="m 8.4712715,18.354525 a 2,2 0 0 1 -2,2 2,2 0 0 1 -2,-2 2,2 0 0 1 2,-2 2,2 0 0 1 2,2 z"
           style="opacity:1;vector-effect:none;fill:#ffffff;fill-opacity:1;stroke:none;stroke-width:1.32034528;stroke-linecap:round;stroke-linejoin:round;stroke-miterlimit:4;stroke-dasharray:none;stroke-dashoffset:0;stroke-opacity:1;paint-order:fill markers stroke" /><path
           inkscape:connector-curvature="0"
           id="path834-41"
           d="m 20.201099,6.6246939 a 2,2 0 0 1 -2,2 2,2 0 0 1 -2,-2 2,2 0 0 1 2,-2 2,2 0 0 1 2,2 z"
           style="opacity:1;vector-effect:none;fill:#ffffff;fill-opacity:1;stroke:none;stroke-width:1.32034528;stroke-linecap:round;stroke-linejoin:round;stroke-miterlimit:4;stroke-dasharray:none;stroke-dashoffset:0;stroke-opacity:1;paint-order:fill markers stroke" /><path
           inkscape:connector-curvature="0"
           id="path834-3"
           d="m 20.201099,18.354525 a 2,2 0 0 1 -2,2 2,2 0 0 1 -2,-2 2,2 0 0 1 2,-2 2,2 0 0 1 2,2 z"
           style="opacity:1;vector-effect:none;fill:#ffffff;fill-opacity:1;stroke:none;stroke-width:1.32034528;stroke-linecap:round;stroke-linejoin:round;stroke-miterlimit:4;stroke-dasharray:none;stroke-dashoffset:0;stroke-opacity:1;paint-order:fill markers stroke" /><path
           inkscape:connector-curvature="0"
           id="path863"
           d="m 6.5039062,6.0917969 v 1 H 18.117188 v -1 z"
           style="color:#000000;font-style:normal;font-variant:normal;font-weight:normal;font-stretch:normal;font-size:medium;line-height:normal;font-family:sans-serif;font-variant-ligatures:normal;font-variant-position:normal;font-variant-caps:normal;font-variant-numeric:normal;font-variant-alternates:normal;font-feature-settings:normal;text-indent:0;text-align:start;text-decoration:none;text-decoration-line:none;text-decoration-style:solid;text-decoration-color:#000000;letter-spacing:normal;word-spacing:normal;text-transform:none;writing-mode:lr-tb;direction:ltr;text-orientation:mixed;dominant-baseline:auto;baseline-shift:baseline;text-anchor:start;white-space:normal;shape-padding:0;clip-rule:nonzero;display:inline;overflow:visible;visibility:visible;opacity:1;isolation:auto;mix-blend-mode:normal;color-interpolation:sRGB;color-interpolation-filters:linearRGB;solid-color:#000000;solid-opacity:1;vector-effect:none;fill:#ffffff;fill-opacity:1;fill-rule:nonzero;stroke:none;stroke-width:1px;stroke-linecap:butt;stroke-linejoin:miter;stroke-miterlimit:4;stroke-dasharray:none;stroke-dashoffset:0;stroke-opacity:1;color-rendering:auto;image-rendering:auto;shape-rendering:auto;text-rendering:auto;enable-background:accumulate" /><path
           inkscape:connector-curvature="0"
           id="path865"
           d="m 6.5625,17.822266 v 1 h 11.728516 v -1 z"
           style="color:#000000;font-style:normal;font-variant:normal;font-weight:normal;font-stretch:normal;font-size:medium;line-height:normal;font-family:sans-serif;font-variant-ligatures:normal;font-variant-position:normal;font-variant-caps:normal;font-variant-numeric:normal;font-variant-alternates:normal;font-feature-settings:normal;text-indent:0;text-align:start;text-decoration:none;text-decoration-line:none;text-decoration-style:solid;text-decoration-color:#000000;letter-spacing:normal;word-spacing:normal;text-transform:none;writing-mode:lr-tb;direction:ltr;text-orientation:mixed;dominant-baseline:auto;baseline-shift:baseline;text-anchor:start;white-space:normal;shape-padding:0;clip-rule:nonzero;display:inline;overflow:visible;visibility:visible;opacity:1;isolation:auto;mix-blend-mode:normal;color-interpolation:sRGB;color-interpolation-filters:linearRGB;solid-color:#000000;solid-opacity:1;vector-effect:none;fill:#ffffff;fill-opacity:1;fill-rule:nonzero;stroke:none;stroke-width:1px;stroke-linecap:butt;stroke-linejoin:miter;stroke-miterlimit:4;stroke-dasharray:none;stroke-dashoffset:0;stroke-opacity:1;color-rendering:auto;image-rendering:auto;shape-rendering:auto;text-rendering:auto;enable-background:accumulate" /><path
           inkscape:connector-curvature="0"
           id="path869"
           d="m 6.1191406,6.7382812 0.5,0.4902344 L 7.109375,6.7304688 6.6113281,6.2382812 Z M 7.1171875,7.7207031 8.1152344,8.7011719 8.6054688,8.203125 7.609375,7.2207031 Z M 8.6132812,9.1933594 9.6113281,10.175781 10.103516,9.6777344 9.1054688,8.6953125 Z m 1.4960938,1.4726566 0.998047,0.982422 0.492187,-0.498047 -0.998047,-0.982422 z m 1.498047,1.474609 0.996094,0.982422 0.492187,-0.5 -0.998047,-0.982422 z m 1.496094,1.472656 0.996093,0.982422 0.492188,-0.498047 -0.998047,-0.982422 z m 1.496093,1.47461 0.998047,0.980468 0.490235,-0.498047 -0.998047,-0.982421 z m 1.496094,1.472656 0.998047,0.982422 0.490234,-0.5 -0.998046,-0.980469 z"
           style="color:#000000;font-style:normal;font-variant:normal;font-weight:normal;font-stretch:normal;font-size:medium;line-height:normal;font-family:sans-serif;font-variant-ligatures:normal;font-variant-position:normal;font-variant-caps:normal;font-variant-numeric:normal;font-variant-alternates:normal;font-feature-settings:normal;text-indent:0;text-align:start;text-decoration:none;text-decoration-line:none;text-decoration-style:solid;text-decoration-color:#000000;letter-spacing:normal;word-spacing:normal;text-transform:none;writing-mode:lr-tb;direction:ltr;text-orientation:mixed;dominant-baseline:auto;baseline-shift:baseline;text-anchor:start;white-space:normal;shape-padding:0;clip-rule:nonzero;display:inline;overflow:visible;visibility:visible;opacity:1;isolation:auto;mix-blend-mode:normal;color-interpolation:sRGB;color-interpolation-filters:linearRGB;solid-color:#000000;solid-opacity:1;vector-effect:none;fill:#ffffff;fill-opacity:1;fill-rule:nonzero;stroke:none;stroke-width:0.69999999;stroke-linecap:butt;stroke-linejoin:miter;stroke-miterlimit:4;stroke-dasharray:1.39999998, 0.69999999;stroke-dashoffset:7;stroke-opacity:1;color-rendering:auto;image-rendering:auto;shape-rendering:auto;text-rendering:auto;enable-background:accumulate" /></g></g></g></svg>