<?xml version="1.0" encoding="UTF-8" standalone="no"?>
<!-- Generator: Adobe Illustrator 19.1.0, SVG Export Plug-In . SVG Version: 6.00 Build 0)  -->

<svg
   xmlns:dc="http://purl.org/dc/elements/1.1/"
   xmlns:cc="http://creativecommons.org/ns#"
   xmlns:rdf="http://www.w3.org/1999/02/22-rdf-syntax-ns#"
   xmlns:svg="http://www.w3.org/2000/svg"
   xmlns="http://www.w3.org/2000/svg"
   xmlns:sodipodi="http://sodipodi.sourceforge.net/DTD/sodipodi-0.dtd"
   xmlns:inkscape="http://www.inkscape.org/namespaces/inkscape"
   version="1.1"
   id="Capa_1"
   x="0px"
   y="0px"
   viewBox="0 0 30 30"
   xml:space="preserve"
   sodipodi:docname="gear.svg"
   width="30"
   height="30"
   inkscape:version="0.92.2 (5c3e80d, 2017-08-06)"><metadata
     id="metadata45"><rdf:RDF><cc:Work
         rdf:about=""><dc:format>image/svg+xml</dc:format><dc:type
           rdf:resource="http://purl.org/dc/dcmitype/StillImage" /><dc:title></dc:title></cc:Work></rdf:RDF></metadata><defs
     id="defs43" /><sodipodi:namedview
     pagecolor="#ffffff"
     bordercolor="#666666"
     borderopacity="1"
     objecttolerance="10"
     gridtolerance="10"
     guidetolerance="10"
     inkscape:pageopacity="0"
     inkscape:pageshadow="2"
     inkscape:window-width="1366"
     inkscape:window-height="705"
     id="namedview41"
     showgrid="false"
     fit-margin-top="0"
     fit-margin-left="0"
     fit-margin-right="0"
     fit-margin-bottom="0"
     inkscape:zoom="7.8879807"
     inkscape:cx="-6.928094"
     inkscape:cy="16.923356"
     inkscape:window-x="-8"
     inkscape:window-y="1072"
     inkscape:window-maximized="1"
     inkscape:current-layer="Capa_1" /><g
     id="g8"
     style="fill:#ffffff"
     transform="matrix(0.0704515,0,0,0.0704515,-1.9021905,-1.8370542)"><g
       id="g6"
       style="fill:#ffffff"><path
         style="fill:#ffffff"
         d="m 217.59961,26.900391 c -1.3,0 -2.39961,0.901171 -2.59961,2.201171 l -7.19922,42.298829 c -0.9,5.2 -4.80039,9.400781 -9.90039,10.800781 -14.7,3.8 -28.80078,9.799609 -41.80078,17.599609 -4.6,2.699999 -10.39883,2.500389 -14.79883,-0.599609 l -34.5,-24.59961 c -0.4,-0.299999 -0.9,-0.5 -1.5,-0.5 -0.5,10e-7 -1.20039,0.09883 -1.90039,0.798829 L 73.599609,104.70117 c -0.9,0.9 -0.998828,2.40039 -0.298828,3.40039 l 24.898438,35 c 3.100001,4.3 3.401171,9.99961 0.701172,14.59961 -7.7,13.1 -13.39961,27.3 -17.09961,42 -1.3,5.2 -5.60039,9.1 -10.90039,10 l -41.701172,7 c -1.3,0.2 -2.199219,1.29961 -2.199219,2.59961 v 42.09961 c 0,1.3 0.899219,2.40156 2.199219,2.60156 L 71.5,271.20117 c 5.2,0.9 9.400781,4.80039 10.800781,9.90039 3.8,14.7 9.79961,28.79883 17.59961,41.79883 2.699999,4.6 2.500389,10.40078 -0.59961,14.80078 l -24.601562,34.5 c -0.7,1.1 -0.599219,2.50039 0.300781,3.40039 l 29.80078,29.79883 c 0.7,0.7 1.49844,0.80078 1.89844,0.80078 0.5,0 1,-0.2 1.5,-0.5 l 35,-24.90039 c 2.3,-1.7 5.10078,-2.5 7.80078,-2.5 2.3,0 4.70078,0.60078 6.80078,1.80078 12.9,7.4 26.7,13.09883 41,16.79883 5.1,1.3 8.99844,5.50078 9.89844,10.80078 l 7,42 c 0.2,1.3 1.30156,2.19922 2.60156,2.19922 h 42.09961 c 1.3,0 2.39961,-0.89922 2.59961,-2.19922 l 7.09961,-42 c 0.8,-5.2 4.70039,-9.50078 9.90039,-10.80078 14.7,-3.8 28.80039,-9.59844 41.90039,-17.39844 4.6,-2.7 10.39922,-2.50039 14.69922,0.59961 l 34.70117,24.69922 c 0.4,0.3 0.9,0.5 1.5,0.5 0.5,0 1.19844,-0.0988 1.89844,-0.79883 L 404.5,374.70117 c 0.9,-0.9 1.00078,-2.40039 0.30078,-3.40039 l -24.70117,-34.79883 c -3.1,-4.4 -3.29961,-10.10117 -0.59961,-14.70117 7.8,-13.1 13.60039,-27.20039 17.40039,-41.90039 1.3,-5.1 5.49883,-8.99844 10.79883,-9.89844 l 42,-7 c 1.3,-0.2 2.20117,-1.30156 2.20117,-2.60156 H 452 v -42.09961 c 0,-1.3 -0.89922,-2.39961 -2.19922,-2.59961 l -42,-7.09961 c -5.2,-0.8 -9.50078,-4.70039 -10.80078,-9.90039 -3.8,-14.7 -9.60039,-28.80039 -17.40039,-41.90039 -2.7,-4.6 -2.50039,-10.39922 0.59961,-14.69922 l 24.70117,-34.70117 c 0.7,-1.1 0.59922,-2.49844 -0.30078,-3.39844 L 374.80078,74.201172 c -0.7,-0.7 -1.50039,-0.800781 -1.90039,-0.800781 -0.5,0 -1,0.2 -1.5,0.5 l -34.5,24.800781 c -4.4,3.099998 -10.10117,3.299608 -14.70117,0.599609 -13.4,-7.9 -27.79844,-13.799609 -42.89844,-17.599609 -5.2,-1.3 -9.1,-5.600391 -10,-10.900391 l -7,-41.699219 c -0.2,-1.3 -1.30156,-2.201171 -2.60156,-2.201171 z m 21.80078,109.101559 c 57,0 103.29883,46.29883 103.29883,103.29883 0,57 -46.29883,103.30078 -103.29883,103.30078 -57,0 -103.30078,-46.30078 -103.30078,-103.30078 0,-57 46.30078,-103.29883 103.30078,-103.29883 z"
         id="path2"
         inkscape:connector-curvature="0" /></g></g><g
     id="g10"
     transform="translate(-27.000001,-688.67969)" /><g
     id="g12"
     transform="translate(-27.000001,-688.67969)" /><g
     id="g14"
     transform="translate(-27.000001,-688.67969)" /><g
     id="g16"
     transform="translate(-27.000001,-688.67969)" /><g
     id="g18"
     transform="translate(-27.000001,-688.67969)" /><g
     id="g20"
     transform="translate(-27.000001,-688.67969)" /><g
     id="g22"
     transform="translate(-27.000001,-688.67969)" /><g
     id="g24"
     transform="translate(-27.000001,-688.67969)" /><g
     id="g26"
     transform="translate(-27.000001,-688.67969)" /><g
     id="g28"
     transform="translate(-27.000001,-688.67969)" /><g
     id="g30"
     transform="translate(-27.000001,-688.67969)" /><g
     id="g32"
     transform="translate(-27.000001,-688.67969)" /><g
     id="g34"
     transform="translate(-27.000001,-688.67969)" /><g
     id="g36"
     transform="translate(-27.000001,-688.67969)" /><g
     id="g38"
     transform="translate(-27.000001,-688.67969)" /></svg>