<?xml version="1.0" encoding="UTF-8" standalone="no"?>
<!-- Generator: Adobe Illustrator 19.0.0, SVG Export Plug-In . SVG Version: 6.00 Build 0)  -->

<svg
   xmlns:dc="http://purl.org/dc/elements/1.1/"
   xmlns:cc="http://creativecommons.org/ns#"
   xmlns:rdf="http://www.w3.org/1999/02/22-rdf-syntax-ns#"
   xmlns:svg="http://www.w3.org/2000/svg"
   xmlns="http://www.w3.org/2000/svg"
   xmlns:sodipodi="http://sodipodi.sourceforge.net/DTD/sodipodi-0.dtd"
   xmlns:inkscape="http://www.inkscape.org/namespaces/inkscape"
   version="1.1"
   id="Layer_1"
   x="0px"
   y="0px"
   viewBox="0 0 16.113281 16.113281"
   xml:space="preserve"
   width="25"
   height="25"
   sodipodi:docname="unapproved.svg"
   inkscape:version="0.92.3 (2405546, 2018-03-11)"><metadata
     id="metadata40"><rdf:RDF><cc:Work
         rdf:about=""><dc:format>image/svg+xml</dc:format><dc:type
           rdf:resource="http://purl.org/dc/dcmitype/StillImage" /><dc:title></dc:title></cc:Work></rdf:RDF></metadata><defs
     id="defs38" /><sodipodi:namedview
     pagecolor="#ffffff"
     bordercolor="#666666"
     borderopacity="1"
     objecttolerance="10"
     gridtolerance="10"
     guidetolerance="10"
     inkscape:pageopacity="0"
     inkscape:pageshadow="2"
     inkscape:window-width="1366"
     inkscape:window-height="705"
     id="namedview36"
     showgrid="false"
     fit-margin-top="0"
     fit-margin-left="0"
     fit-margin-right="0"
     fit-margin-bottom="0"
     inkscape:zoom="10.429825"
     inkscape:cx="-1.6354791"
     inkscape:cy="-0.494057"
     inkscape:window-x="-8"
     inkscape:window-y="1072"
     inkscape:window-maximized="1"
     inkscape:current-layer="g4" /><g
     id="g5"
     transform="translate(-2.0058594,-299.76563)" /><g
     id="g7"
     transform="translate(-2.0058594,-299.76563)" /><g
     id="g9"
     transform="translate(-2.0058594,-299.76563)" /><g
     id="g11"
     transform="translate(-2.0058594,-299.76563)" /><g
     id="g13"
     transform="translate(-2.0058594,-299.76563)" /><g
     id="g15"
     transform="translate(-2.0058594,-299.76563)" /><g
     id="g17"
     transform="translate(-2.0058594,-299.76563)" /><g
     id="g19"
     transform="translate(-2.0058594,-299.76563)" /><g
     id="g21"
     transform="translate(-2.0058594,-299.76563)" /><g
     id="g23"
     transform="translate(-2.0058594,-299.76563)" /><g
     id="g25"
     transform="translate(-2.0058594,-299.76563)" /><g
     id="g27"
     transform="translate(-2.0058594,-299.76563)" /><g
     id="g29"
     transform="translate(-2.0058594,-299.76563)" /><g
     id="g31"
     transform="translate(-2.0058594,-299.76563)" /><g
     id="g33"
     transform="translate(-2.0058594,-299.76563)" /><g
     id="g854"
     style="fill:#000000"
     transform="matrix(-1,0,0,1,322.26563,-299.76563)"><g
       transform="matrix(-0.17755083,0,0,0.17755083,323.55282,303.04847)"
       id="g6"><g
         id="g4"><g
           id="g853"
           style="fill:#ffffff"><g
             transform="translate(0,4.9288385)"
             id="g846"
             style="fill:#ffffff"><path
               style="fill:#ffffff;stroke-width:0.86970341"
               d="M 53.698457,-9.5214707 C 37.507261,-9.4732372 30.574776,-0.89700734 29.921343,11.098513 l 11.224259,-0.15026 C 41.596413,4.2664073 45.848367,0.36969226 53.569946,0.21687306 c 7.035188,0.2184614 11.08421,4.36174124 11.1415,9.56212424 0.05729,5.2003827 -1.872175,6.8139457 -6.891937,9.6920147 -5.019762,2.878069 -12.271593,7.470282 -12.80169,14.409616 2.081274,-1.336331 4.159843,-1.764041 6.801887,-1.764041 2.856963,0 3.774584,0.555094 5.955172,2.09702 0.94934,-9.397428 18.29843,-10.013046 18.329433,-23.87771 0.03101,-13.8646639 -9.871422,-19.7424604 -22.405854,-19.8573677 z"
               id="path2"
               inkscape:connector-curvature="0"
               sodipodi:nodetypes="cccczzcsczc" /><path
               style="color:#000000;font-style:normal;font-variant:normal;font-weight:normal;font-stretch:normal;font-size:medium;line-height:normal;font-family:sans-serif;font-variant-ligatures:normal;font-variant-position:normal;font-variant-caps:normal;font-variant-numeric:normal;font-variant-alternates:normal;font-feature-settings:normal;text-indent:0;text-align:start;text-decoration:none;text-decoration-line:none;text-decoration-style:solid;text-decoration-color:#000000;letter-spacing:normal;word-spacing:normal;text-transform:none;writing-mode:lr-tb;direction:ltr;text-orientation:mixed;dominant-baseline:auto;baseline-shift:baseline;text-anchor:start;white-space:normal;shape-padding:0;clip-rule:nonzero;display:inline;overflow:visible;visibility:visible;opacity:1;isolation:auto;mix-blend-mode:normal;color-interpolation:sRGB;color-interpolation-filters:linearRGB;solid-color:#000000;solid-opacity:1;vector-effect:none;fill:#ffffff;fill-opacity:1;fill-rule:nonzero;stroke:none;stroke-width:4.76116419;stroke-linecap:butt;stroke-linejoin:miter;stroke-miterlimit:4;stroke-dasharray:none;stroke-dashoffset:0;stroke-opacity:1;paint-order:fill markers stroke;color-rendering:auto;image-rendering:auto;shape-rendering:auto;text-rendering:auto;enable-background:accumulate"
               d="m 52.218197,40.186775 c 3.68717,0 6.625462,2.938292 6.625462,6.625461 0,3.687169 -2.938292,6.62546 -6.625462,6.62546 -3.687168,0 -6.625459,-2.938291 -6.625459,-6.62546 0,-3.687169 2.938291,-6.625461 6.625459,-6.625461 z"
               id="path839"
               inkscape:connector-curvature="0"
               sodipodi:nodetypes="sssss" /></g><g
             style="fill:#ffffff"
             id="g894"
             transform="matrix(3.6301224,0,0,3.6301224,7.2496986,-18.489577)"><path
               style="color:#000000;font-style:normal;font-variant:normal;font-weight:normal;font-stretch:normal;font-size:medium;line-height:normal;font-family:sans-serif;font-variant-ligatures:normal;font-variant-position:normal;font-variant-caps:normal;font-variant-numeric:normal;font-variant-alternates:normal;font-feature-settings:normal;text-indent:0;text-align:start;text-decoration:none;text-decoration-line:none;text-decoration-style:solid;text-decoration-color:#000000;letter-spacing:normal;word-spacing:normal;text-transform:none;writing-mode:lr-tb;direction:ltr;text-orientation:mixed;dominant-baseline:auto;baseline-shift:baseline;text-anchor:start;white-space:normal;shape-padding:0;clip-rule:nonzero;display:inline;overflow:visible;visibility:visible;opacity:1;isolation:auto;mix-blend-mode:normal;color-interpolation:sRGB;color-interpolation-filters:linearRGB;solid-color:#000000;solid-opacity:1;vector-effect:none;fill:#ffffff;fill-opacity:1;fill-rule:nonzero;stroke:none;stroke-width:1.78291297;stroke-linecap:butt;stroke-linejoin:round;stroke-miterlimit:4;stroke-dasharray:none;stroke-dashoffset:0;stroke-opacity:1;paint-order:fill markers stroke;color-rendering:auto;image-rendering:auto;shape-rendering:auto;text-rendering:auto;enable-background:accumulate"
               d="m 1.8134765,0.03220455 c -0.97407898,9.9892e-4 -1.780251,0.80717119 -1.78125,1.78124995 v 0.00195 21.3710935 0.002 c 9.9928e-4,0.974081 0.80935826,1.778299 1.78125,1.779297 0,0 0.00195,0 0.00195,0 H 23.18457 c 0,0 0.002,0 0.002,0 0.971889,-9.98e-4 1.780249,-0.805218 1.78125,-1.779297 0,0 0,-0.002 0,-0.002 V 1.8154076 c 0,0 0,-0.00195 0,-0.00195 -0.001,-0.97407709 -0.807171,-1.78025076 -1.78125,-1.78124995 H 23.18457 1.8154296 Z M 2.7373046,1.1083764 H 22.262695 c 0.889958,9.129e-4 1.627993,0.7389505 1.628906,1.6289062 V 22.262674 c 0,0 0,0.002 0,0.002 -9.14e-4,0.889957 -0.740949,1.626041 -1.628906,1.626953 H 2.7373046 c -0.887959,-9.59e-4 -1.6279932,-0.737041 -1.6289062,-1.627 v -0.002 V 2.7372826 C 1.1093112,1.8473254 1.8473472,1.109289 2.7373046,1.1083764 Z"
               id="rect829-1"
               inkscape:connector-curvature="0" /></g></g></g></g></g></svg>