<?xml version="1.0" encoding="UTF-8" standalone="no"?>
<!-- Generator: Adobe Illustrator 18.0.0, SVG Export Plug-In . SVG Version: 6.00 Build 0)  -->

<svg
   xmlns:dc="http://purl.org/dc/elements/1.1/"
   xmlns:cc="http://creativecommons.org/ns#"
   xmlns:rdf="http://www.w3.org/1999/02/22-rdf-syntax-ns#"
   xmlns:svg="http://www.w3.org/2000/svg"
   xmlns="http://www.w3.org/2000/svg"
   xmlns:sodipodi="http://sodipodi.sourceforge.net/DTD/sodipodi-0.dtd"
   xmlns:inkscape="http://www.inkscape.org/namespaces/inkscape"
   version="1.1"
   id="Capa_1"
   x="0px"
   y="0px"
   viewBox="0 0 24.999999 24.999999"
   xml:space="preserve"
   sodipodi:docname="live.svg"
   inkscape:version="0.92.3 (2405546, 2018-03-11)"
   width="25"
   height="25"><metadata
     id="metadata47"><rdf:RDF><cc:Work
         rdf:about=""><dc:format>image/svg+xml</dc:format><dc:type
           rdf:resource="http://purl.org/dc/dcmitype/StillImage" /><dc:title></dc:title></cc:Work></rdf:RDF></metadata><defs
     id="defs45"><pattern
       y="0"
       x="0"
       height="6"
       width="6"
       patternUnits="userSpaceOnUse"
       id="EMFhbasepattern" /></defs><sodipodi:namedview
     pagecolor="#ffffff"
     bordercolor="#666666"
     borderopacity="1"
     objecttolerance="10"
     gridtolerance="10"
     guidetolerance="10"
     inkscape:pageopacity="0"
     inkscape:pageshadow="2"
     inkscape:window-width="1366"
     inkscape:window-height="745"
     id="namedview43"
     showgrid="false"
     inkscape:zoom="9.016344"
     inkscape:cx="18.832789"
     inkscape:cy="-0.57461898"
     inkscape:window-x="-8"
     inkscape:window-y="1072"
     inkscape:window-maximized="1"
     inkscape:current-layer="g943" /><g
     id="g12"
     transform="translate(0,-393.79501)" /><g
     id="g14"
     transform="translate(0,-393.79501)" /><g
     id="g16"
     transform="translate(0,-393.79501)" /><g
     id="g18"
     transform="translate(0,-393.79501)" /><g
     id="g20"
     transform="translate(0,-393.79501)" /><g
     id="g22"
     transform="translate(0,-393.79501)" /><g
     id="g24"
     transform="translate(0,-393.79501)" /><g
     id="g26"
     transform="translate(0,-393.79501)" /><g
     id="g28"
     transform="translate(0,-393.79501)" /><g
     id="g30"
     transform="translate(0,-393.79501)" /><g
     id="g32"
     transform="translate(0,-393.79501)" /><g
     id="g34"
     transform="translate(0,-393.79501)" /><g
     id="g36"
     transform="translate(0,-393.79501)" /><g
     id="g38"
     transform="translate(0,-393.79501)" /><g
     id="g40"
     transform="translate(0,-393.79501)" /><g
     id="g943"
     transform="matrix(0.07511064,0,0,0.07511064,-6.7283234,3.7364663)"
     style="fill:#000000"><g
       id="g876"
       style="fill:#ffffff"><g
         style="fill:#ffffff"
         id="g841">
	<g
   style="fill:#ffffff"
   id="g839">
		<path
   style="fill:#ffffff"
   inkscape:connector-curvature="0"
   d="M 160.536,21.211 139.325,0 c -64.321,64.336 -64.321,169.014 0,233.35 l 21.211,-21.211 c -52.617,-52.632 -52.617,-138.296 0,-190.928 z"
   id="path837" />
	</g>
</g><g
         style="fill:#ffffff"
         id="g847">
	<g
   style="fill:#ffffff"
   id="g845">
		<path
   style="fill:#ffffff"
   inkscape:connector-curvature="0"
   d="m 372.675,0 -21.211,21.211 c 52.617,52.632 52.617,138.296 0,190.928 l 21.211,21.211 c 64.321,-64.336 64.321,-169.014 0,-233.35 z"
   id="path843" />
	</g>
</g><g
         transform="translate(3.6915441)"
         style="fill:#ffffff"
         id="g853">
	<g
   style="fill:#ffffff"
   id="g851">
		<path
   style="fill:#ffffff"
   inkscape:connector-curvature="0"
   d="M 202.973,63.648 181.762,42.437 c -19.805,19.805 -30.718,46.157 -30.718,74.238 0,28.081 10.913,54.434 30.718,74.238 l 21.211,-21.211 c -14.136,-14.136 -21.929,-32.974 -21.929,-53.027 0,-20.053 7.793,-38.892 21.929,-53.027 z"
   id="path849" />
	</g>
</g><g
         transform="translate(-3.6915441)"
         style="fill:#ffffff"
         id="g859">
	<g
   style="fill:#ffffff"
   id="g857">
		<path
   style="fill:#ffffff"
   inkscape:connector-curvature="0"
   d="m 330.238,42.437 -21.211,21.211 c 14.136,14.136 21.929,32.974 21.929,53.027 0,20.053 -7.793,38.892 -21.929,53.027 l 21.211,21.211 c 19.805,-19.805 30.718,-46.157 30.718,-74.238 0,-28.081 -10.913,-54.434 -30.718,-74.238 z"
   id="path855" />
	</g>
</g><g
         transform="matrix(0.75389705,0,0,0.75389705,63.002354,28.714061)"
         style="fill:#ffffff"
         id="g865">
	<g
   style="fill:#ffffff"
   id="g863">
		<path
   style="fill:#ffffff"
   inkscape:connector-curvature="0"
   d="m 256,71.675 c -24.814,0 -45,20.185 -45,45 0,24.814 20.186,45 45,45 24.814,0 45,-20.186 45,-45 0,-24.814 -20.186,-45 -45,-45 z"
   id="path861" />
	</g>
</g></g><g
       id="g871"
       style="fill:#000000">
	<g
   id="g869"
   style="fill:#000000">
		
	</g>
</g><g
       id="g873"
       style="fill:#000000">
</g><g
       id="g875"
       style="fill:#000000">
</g><g
       id="g877"
       style="fill:#000000">
</g><g
       id="g879"
       style="fill:#000000">
</g><g
       id="g881"
       style="fill:#000000">
</g><g
       id="g883"
       style="fill:#000000">
</g><g
       id="g885"
       style="fill:#000000">
</g><g
       id="g887"
       style="fill:#000000">
</g><g
       id="g889"
       style="fill:#000000">
</g><g
       id="g891"
       style="fill:#000000">
</g><g
       id="g893"
       style="fill:#000000">
</g><g
       id="g895"
       style="fill:#000000">
</g><g
       id="g897"
       style="fill:#000000">
</g><g
       id="g899"
       style="fill:#000000">
</g><g
       id="g901"
       style="fill:#000000">
</g></g></svg>