<?xml version="1.0" encoding="UTF-8" standalone="no"?>
<!-- Generator: Adobe Illustrator 16.0.0, SVG Export Plug-In . SVG Version: 6.00 Build 0)  -->

<svg
   xmlns:dc="http://purl.org/dc/elements/1.1/"
   xmlns:cc="http://creativecommons.org/ns#"
   xmlns:rdf="http://www.w3.org/1999/02/22-rdf-syntax-ns#"
   xmlns:svg="http://www.w3.org/2000/svg"
   xmlns="http://www.w3.org/2000/svg"
   xmlns:sodipodi="http://sodipodi.sourceforge.net/DTD/sodipodi-0.dtd"
   xmlns:inkscape="http://www.inkscape.org/namespaces/inkscape"
   version="1.1"
   id="Capa_1"
   x="0px"
   y="0px"
   width="20"
   height="20"
   viewBox="0 0 20.000001 20.000001"
   xml:space="preserve"
   sodipodi:docname="lock.svg"
   inkscape:version="0.92.2 (5c3e80d, 2017-08-06)"><metadata
     id="metadata41"><rdf:RDF><cc:Work
         rdf:about=""><dc:format>image/svg+xml</dc:format><dc:type
           rdf:resource="http://purl.org/dc/dcmitype/StillImage" /><dc:title></dc:title></cc:Work></rdf:RDF></metadata><defs
     id="defs39" /><sodipodi:namedview
     pagecolor="#ffffff"
     bordercolor="#666666"
     borderopacity="1"
     objecttolerance="10"
     gridtolerance="10"
     guidetolerance="10"
     inkscape:pageopacity="0"
     inkscape:pageshadow="2"
     inkscape:window-width="1366"
     inkscape:window-height="705"
     id="namedview37"
     showgrid="false"
     fit-margin-top="0"
     fit-margin-left="0"
     fit-margin-right="0"
     fit-margin-bottom="0"
     inkscape:zoom="18.786165"
     inkscape:cx="-1.6962197"
     inkscape:cy="13.813793"
     inkscape:window-x="-8"
     inkscape:window-y="1072"
     inkscape:window-maximized="1"
     inkscape:current-layer="Capa_1" /><g
     id="g4"
     style="fill:#ffffff"
     transform="matrix(0.04978822,0,0,0.04978822,0.2098147,-0.01475521)"><path
       d="M 398.71915,182.728 H 320.902 v -54.821 c 0,-35.022 -8.559,-65.093 -33.685,-90.218 C 262.093,12.563 236.025,0 200.998,0 165.972,0 130.27572,12.563 105.15372,37.688 80.027725,62.814 71.468725,92.884 71.468725,127.907 v 54.821 H -4.2141447 v 219.27 H 398.72615 Z m -132.63215,0 H 126.28672 v -54.821 c 0,-20.175 3.139,-37.402 17.414,-51.675 14.277,-14.275 37.12328,-21.411 57.30028,-21.411 20.179,0 33.399,7.135 47.677,21.411 14.271,14.272 16.67346,31.51341 17.409,51.675 z"
       id="path2"
       inkscape:connector-curvature="0"
       sodipodi:nodetypes="ccscscscccccccssscsc"
       style="fill:#ffffff" /></g><g
     id="g6"
     transform="translate(-35.956,-381.99799)" /><g
     id="g8"
     transform="translate(-35.956,-381.99799)" /><g
     id="g10"
     transform="translate(-35.956,-381.99799)" /><g
     id="g12"
     transform="translate(-35.956,-381.99799)" /><g
     id="g14"
     transform="translate(-35.956,-381.99799)" /><g
     id="g16"
     transform="translate(-35.956,-381.99799)" /><g
     id="g18"
     transform="translate(-35.956,-381.99799)" /><g
     id="g20"
     transform="translate(-35.956,-381.99799)" /><g
     id="g22"
     transform="translate(-35.956,-381.99799)" /><g
     id="g24"
     transform="translate(-35.956,-381.99799)" /><g
     id="g26"
     transform="translate(-35.956,-381.99799)" /><g
     id="g28"
     transform="translate(-35.956,-381.99799)" /><g
     id="g30"
     transform="translate(-35.956,-381.99799)" /><g
     id="g32"
     transform="translate(-35.956,-381.99799)" /><g
     id="g34"
     transform="translate(-35.956,-381.99799)" /></svg>