<?xml version="1.0" encoding="UTF-8" standalone="no"?>
<!-- Created with Inkscape (http://www.inkscape.org/) -->

<svg
   xmlns:dc="http://purl.org/dc/elements/1.1/"
   xmlns:cc="http://creativecommons.org/ns#"
   xmlns:rdf="http://www.w3.org/1999/02/22-rdf-syntax-ns#"
   xmlns:svg="http://www.w3.org/2000/svg"
   xmlns="http://www.w3.org/2000/svg"
   xmlns:sodipodi="http://sodipodi.sourceforge.net/DTD/sodipodi-0.dtd"
   xmlns:inkscape="http://www.inkscape.org/namespaces/inkscape"
   width="1044.1729"
   height="1044.1729"
   id="svg3041"
   version="1.1"
   inkscape:version="0.48.4 r9939"
   sodipodi:docname="logo.svg">
  <defs
     id="defs3043">
    <inkscape:path-effect
       effect="bend_path"
       id="path-effect3997"
       is_visible="true"
       bendpath="m 197.14286,843.79074 187.14285,0"
       prop_scale="1"
       scale_y_rel="false"
       vertical="false" />
  </defs>
  <sodipodi:namedview
     id="base"
     pagecolor="#000000"
     bordercolor="#666666"
     borderopacity="1.0"
     inkscape:pageopacity="0"
     inkscape:pageshadow="2"
     inkscape:zoom="0.35355339"
     inkscape:cx="278.80092"
     inkscape:cy="249.69252"
     inkscape:document-units="px"
     inkscape:current-layer="layer1"
     showgrid="false"
     inkscape:window-width="1621"
     inkscape:window-height="960"
     inkscape:window-x="2062"
     inkscape:window-y="62"
     inkscape:window-maximized="0"
     showborder="true"
     fit-margin-top="0"
     fit-margin-left="0"
     fit-margin-right="0"
     fit-margin-bottom="0"
     inkscape:showpageshadow="false" />
  <metadata
     id="metadata3046">
    <rdf:RDF>
      <cc:Work
         rdf:about="">
        <dc:format>image/svg+xml</dc:format>
        <dc:type
           rdf:resource="http://purl.org/dc/dcmitype/StillImage" />
        <dc:title></dc:title>
      </cc:Work>
    </rdf:RDF>
  </metadata>
  <g
     inkscape:label="Layer 1"
     inkscape:groupmode="layer"
     id="layer1"
     transform="translate(144.89545,-93.283741)">
    <path
       sodipodi:type="arc"
       style="fill:none;stroke:#cccccc;stroke-width:21.77452087;stroke-miterlimit:4;stroke-opacity:0.05882353;stroke-dasharray:none"
       id="path3895"
       sodipodi:cx="409.61685"
       sodipodi:cy="637.69458"
       sodipodi:rx="95.459419"
       sodipodi:ry="95.459419"
       d="m 505.07627,637.69458 c 0,52.72078 -42.73864,95.45942 -95.45942,95.45942 -52.72078,0 -95.45942,-42.73864 -95.45942,-95.45942 0,-52.72078 42.73864,-95.45942 95.45942,-95.45942 52.72078,0 95.45942,42.73864 95.45942,95.45942 z"
       transform="matrix(0.91850471,0,0,0.91850471,-3.4887229,27.22037)" />
    <path
       sodipodi:type="arc"
       style="fill:none;stroke:#cccccc;stroke-width:16.16555786;stroke-miterlimit:4;stroke-opacity:0.05882353;stroke-dasharray:none"
       id="path3895-9"
       sodipodi:cx="409.61685"
       sodipodi:cy="637.69458"
       sodipodi:rx="95.459419"
       sodipodi:ry="95.459419"
       d="m 505.07627,637.69458 c 0,52.72078 -42.73864,95.45942 -95.45942,95.45942 -52.72078,0 -95.45942,-42.73864 -95.45942,-95.45942 0,-52.72078 42.73864,-95.45942 95.45942,-95.45942 52.72078,0 95.45942,42.73864 95.45942,95.45942 z"
       transform="matrix(1.5464979,0,0,1.5464979,-261.02834,-375.16677)" />
    <path
       sodipodi:type="arc"
       style="fill:none;stroke:#cccccc;stroke-width:11.72434711;stroke-miterlimit:4;stroke-opacity:0.05882353;stroke-dasharray:none"
       id="path3895-9-0"
       sodipodi:cx="409.61685"
       sodipodi:cy="637.69458"
       sodipodi:rx="95.459419"
       sodipodi:ry="95.459419"
       d="m 505.07627,637.69458 c 0,52.72078 -42.73864,95.45942 -95.45942,95.45942 -52.72078,0 -95.45942,-42.73864 -95.45942,-95.45942 0,-52.72078 42.73864,-95.45942 95.45942,-95.45942 52.72078,0 95.45942,42.73864 95.45942,95.45942 z"
       transform="matrix(2.5587778,0,0,2.5587778,-674.4631,-1025.945)" />
    <path
       sodipodi:type="arc"
       style="fill:none;stroke:#cccccc;stroke-width:9.10302067;stroke-miterlimit:4;stroke-opacity:0.05882353;stroke-dasharray:none"
       id="path3895-9-0-8"
       sodipodi:cx="409.61685"
       sodipodi:cy="637.69458"
       sodipodi:rx="95.459419"
       sodipodi:ry="95.459419"
       d="m 505.07627,637.69458 c 0,52.72078 -42.73864,95.45942 -95.45942,95.45942 -52.72078,0 -95.45942,-42.73864 -95.45942,-95.45942 0,-52.72078 42.73864,-95.45942 95.45942,-95.45942 52.72078,0 95.45942,42.73864 95.45942,95.45942 z"
       transform="matrix(3.8448776,0,0,3.8448776,-1200.1602,-1842.9524)" />
    <path
       sodipodi:type="arc"
       style="fill:none;stroke:#cccccc;stroke-width:7.0887742;stroke-miterlimit:4;stroke-opacity:0.05882353;stroke-dasharray:none"
       id="path3895-9-0-8-6"
       sodipodi:cx="409.61685"
       sodipodi:cy="637.69458"
       sodipodi:rx="95.459419"
       sodipodi:ry="95.459419"
       d="m 505.07627,637.69458 c 0,52.72078 -42.73864,95.45942 -95.45942,95.45942 -52.72078,0 -95.45942,-42.73864 -95.45942,-95.45942 0,-52.72078 42.73864,-95.45942 95.45942,-95.45942 52.72078,0 95.45942,42.73864 95.45942,95.45942 z"
       transform="matrix(5.2733978,0,0,5.2733978,-1782.8816,-2747.447)" />
    <path
       style="fill:#cccccc;fill-opacity:0.05882353;stroke:none"
       d="m 368.875,609.71875 -37.5,452.65625 40.4375,0 1.59375,0 40.40625,0 -37.46875,-452.65625 -2.9375,0 -1.59375,0 -2.9375,0 z"
       id="path4588"
       inkscape:connector-curvature="0" />
  </g>
</svg>
