<?xml version="1.0" encoding="UTF-8" standalone="no"?>
<!-- Generator: Adobe Illustrator 16.0.0, SVG Export Plug-In . SVG Version: 6.00 Build 0)  -->

<svg
   xmlns:dc="http://purl.org/dc/elements/1.1/"
   xmlns:cc="http://creativecommons.org/ns#"
   xmlns:rdf="http://www.w3.org/1999/02/22-rdf-syntax-ns#"
   xmlns:svg="http://www.w3.org/2000/svg"
   xmlns="http://www.w3.org/2000/svg"
   xmlns:sodipodi="http://sodipodi.sourceforge.net/DTD/sodipodi-0.dtd"
   xmlns:inkscape="http://www.inkscape.org/namespaces/inkscape"
   version="1.1"
   id="Capa_1"
   x="0px"
   y="0px"
   width="25"
   height="25"
   viewBox="0 0 25.000001 25.000001"
   xml:space="preserve"
   sodipodi:docname="obplayer.svg"
   inkscape:version="0.92.3 (2405546, 2018-03-11)"><metadata
     id="metadata41"><rdf:RDF><cc:Work
         rdf:about=""><dc:format>image/svg+xml</dc:format><dc:type
           rdf:resource="http://purl.org/dc/dcmitype/StillImage" /><dc:title></dc:title></cc:Work></rdf:RDF></metadata><defs
     id="defs39" /><sodipodi:namedview
     pagecolor="#ffffff"
     bordercolor="#666666"
     borderopacity="1"
     objecttolerance="10"
     gridtolerance="10"
     guidetolerance="10"
     inkscape:pageopacity="0"
     inkscape:pageshadow="2"
     inkscape:window-width="1366"
     inkscape:window-height="705"
     id="namedview37"
     showgrid="false"
     fit-margin-top="0"
     fit-margin-left="0"
     fit-margin-right="0"
     fit-margin-bottom="0"
     inkscape:zoom="11.313709"
     inkscape:cx="0.44042132"
     inkscape:cy="10.976703"
     inkscape:window-x="-8"
     inkscape:window-y="1072"
     inkscape:window-maximized="1"
     inkscape:current-layer="g842"
     showguides="true"
     inkscape:guide-bbox="true" /><g
     id="g6"
     transform="translate(-36.020453,-376.98627)" /><g
     id="g8"
     transform="translate(-36.020453,-376.98627)" /><g
     id="g10"
     transform="translate(-36.020453,-376.98627)" /><g
     id="g12"
     transform="translate(-36.020453,-376.98627)" /><g
     id="g14"
     transform="translate(-36.020453,-376.98627)" /><g
     id="g16"
     transform="translate(-36.020453,-376.98627)" /><g
     id="g18"
     transform="translate(-36.020453,-376.98627)" /><g
     id="g20"
     transform="translate(-36.020453,-376.98627)" /><g
     id="g22"
     transform="translate(-36.020453,-376.98627)" /><g
     id="g24"
     transform="translate(-36.020453,-376.98627)" /><g
     id="g26"
     transform="translate(-36.020453,-376.98627)" /><g
     id="g28"
     transform="translate(-36.020453,-376.98627)" /><g
     id="g30"
     transform="translate(-36.020453,-376.98627)" /><g
     id="g32"
     transform="translate(-36.020453,-376.98627)" /><g
     id="g34"
     transform="translate(-36.020453,-376.98627)" /><g
     id="g840"
     style="fill:#000000"
     transform="translate(-0.06445312,5.0117189)"><g
       transform="matrix(1.0054344,0,0,1.0054344,-0.05520384,-0.05563052)"
       id="g981"
       style="fill:#000000"><g
         id="g843"
         style="fill:#000000"
         transform="matrix(1.25,0,0,1.25,-0.02975255,-4.9838934)"><g
           id="g842"
           style="fill:#000000;fill-opacity:1"
           transform="matrix(0.79748995,0,0,0.79756807,0.06760949,0.00571872)" /><path
           id="path969"
           d="m 10.10589,3.5023637 c -3.0168441,-3e-7 -5.4624795,2.4456352 -5.4624795,5.4624801 h 4.7586031 a 0.733618,0.733618 0 0 1 0,-0.00991 0.733618,0.733618 0 0 1 0.7336164,-0.733618 0.733618,0.733618 0 0 1 0.733621,0.733618 0.733618,0.733618 0 0 1 0,0.00991 h 4.699121 c 0,-3.0168449 -2.445636,-5.4624804 -5.462482,-5.4624801 z"
           style="opacity:1;vector-effect:none;fill:#ffffff;fill-opacity:1;stroke:none;stroke-width:3.34538746;stroke-linecap:butt;stroke-linejoin:miter;stroke-miterlimit:4;stroke-dasharray:none;stroke-dashoffset:0;stroke-opacity:1;paint-order:fill markers stroke"
           inkscape:connector-curvature="0" /><path
           sodipodi:nodetypes="cccc"
           inkscape:connector-curvature="0"
           id="path937"
           d="M 10.152756,9.4152172 8.4797535,16.840899 c 1.1172655,0.319958 2.3973235,0.320722 3.4178605,0.002 z"
           style="fill:#ffffff;fill-opacity:1;stroke-width:0.09828663" /></g><path
         style="color:#000000;font-style:normal;font-variant:normal;font-weight:normal;font-stretch:normal;font-size:medium;line-height:normal;font-family:sans-serif;font-variant-ligatures:normal;font-variant-position:normal;font-variant-caps:normal;font-variant-numeric:normal;font-variant-alternates:normal;font-feature-settings:normal;text-indent:0;text-align:start;text-decoration:none;text-decoration-line:none;text-decoration-style:solid;text-decoration-color:#000000;letter-spacing:normal;word-spacing:normal;text-transform:none;writing-mode:lr-tb;direction:ltr;text-orientation:mixed;dominant-baseline:auto;baseline-shift:baseline;text-anchor:start;white-space:normal;shape-padding:0;clip-rule:nonzero;display:inline;overflow:visible;visibility:visible;opacity:1;isolation:auto;mix-blend-mode:normal;color-interpolation:sRGB;color-interpolation-filters:linearRGB;solid-color:#000000;solid-opacity:1;vector-effect:none;fill:#ffffff;fill-opacity:1;fill-rule:nonzero;stroke:none;stroke-width:2.26443529;stroke-linecap:butt;stroke-linejoin:miter;stroke-miterlimit:4;stroke-dasharray:none;stroke-dashoffset:0;stroke-opacity:1;paint-order:fill markers stroke;color-rendering:auto;image-rendering:auto;shape-rendering:auto;text-rendering:auto;enable-background:accumulate"
         d="m 12.549019,-4.9293006 c -6.8525867,0 -12.43000879,5.57917903 -12.43000879,12.4324382 0,6.8532574 5.57742209,12.4324364 12.43000879,12.4324364 6.852587,0 12.434866,-5.579179 12.434866,-12.4324364 0,-6.85325917 -5.582279,-12.4324382 -12.434866,-12.4324382 z m -0.0777,1.141259 A 11.305748,11.305748 0 0 1 23.777064,7.5177054 11.305748,11.305748 0 0 1 12.471317,18.823453 11.305748,11.305748 0 0 1 1.1655689,7.5177054 11.305748,11.305748 0 0 1 12.471317,-3.7880416 Z"
         id="path831-1"
         inkscape:connector-curvature="0" /></g></g></svg>