<?xml version="1.0" encoding="UTF-8" standalone="no"?>
<!-- Generator: Adobe Illustrator 16.0.0, SVG Export Plug-In . SVG Version: 6.00 Build 0)  -->

<svg
   xmlns:dc="http://purl.org/dc/elements/1.1/"
   xmlns:cc="http://creativecommons.org/ns#"
   xmlns:rdf="http://www.w3.org/1999/02/22-rdf-syntax-ns#"
   xmlns:svg="http://www.w3.org/2000/svg"
   xmlns="http://www.w3.org/2000/svg"
   xmlns:sodipodi="http://sodipodi.sourceforge.net/DTD/sodipodi-0.dtd"
   xmlns:inkscape="http://www.inkscape.org/namespaces/inkscape"
   version="1.1"
   id="Capa_1"
   x="0px"
   y="0px"
   width="20"
   height="20"
   viewBox="0 0 20.000001 20.000001"
   xml:space="preserve"
   sodipodi:docname="pass_hide.svg"
   inkscape:version="0.92.3 (2405546, 2018-03-11)"><metadata
     id="metadata41"><rdf:RDF><cc:Work
         rdf:about=""><dc:format>image/svg+xml</dc:format><dc:type
           rdf:resource="http://purl.org/dc/dcmitype/StillImage" /><dc:title></dc:title></cc:Work></rdf:RDF></metadata><defs
     id="defs39" /><sodipodi:namedview
     pagecolor="#ffffff"
     bordercolor="#666666"
     borderopacity="1"
     objecttolerance="10"
     gridtolerance="10"
     guidetolerance="10"
     inkscape:pageopacity="0"
     inkscape:pageshadow="2"
     inkscape:window-width="1366"
     inkscape:window-height="705"
     id="namedview37"
     showgrid="false"
     fit-margin-top="0"
     fit-margin-left="0"
     fit-margin-right="0"
     fit-margin-bottom="0"
     inkscape:zoom="18.786165"
     inkscape:cx="15.025362"
     inkscape:cy="7.3806962"
     inkscape:window-x="-8"
     inkscape:window-y="1072"
     inkscape:window-maximized="1"
     inkscape:current-layer="g886" /><g
     id="g4"
     style="fill:#000000"
     transform="matrix(0.04978822,0,0,0.04978822,0.2098147,-0.01475521)" /><g
     id="g6"
     transform="translate(-35.956,-381.99799)" /><g
     id="g8"
     transform="translate(-35.956,-381.99799)" /><g
     id="g10"
     transform="translate(-35.956,-381.99799)" /><g
     id="g12"
     transform="translate(-35.956,-381.99799)" /><g
     id="g14"
     transform="translate(-35.956,-381.99799)" /><g
     id="g16"
     transform="translate(-35.956,-381.99799)" /><g
     id="g18"
     transform="translate(-35.956,-381.99799)" /><g
     id="g20"
     transform="translate(-35.956,-381.99799)" /><g
     id="g22"
     transform="translate(-35.956,-381.99799)" /><g
     id="g24"
     transform="translate(-35.956,-381.99799)" /><g
     id="g26"
     transform="translate(-35.956,-381.99799)" /><g
     id="g28"
     transform="translate(-35.956,-381.99799)" /><g
     id="g30"
     transform="translate(-35.956,-381.99799)" /><g
     id="g32"
     transform="translate(-35.956,-381.99799)" /><g
     id="g34"
     transform="translate(-35.956,-381.99799)" /><g
     id="g886"
     style="fill:#000000"><g
       id="g885"><g
         style="fill:#ffffff"
         id="g889"
         transform="matrix(0.04091235,0,0,0.04091235,-1.14875e-6,-1.14875e-6)"><g
           style="fill:#ffffff"
           id="g833">
	<path
   inkscape:connector-curvature="0"
   id="path831"
   transform="matrix(24.442497,0,0,24.442497,2.8078319e-5,2.8078319e-5)"
   d="m 10,4.0390625 c -3.8212135,0 -7.2867281,2.0906031 -9.84375,5.4863281 -0.20865298,0.278204 -0.20865298,0.6671084 0,0.9453124 0.9466101,1.258613 2.0180095,2.335191 3.1855469,3.195313 l 2.609375,-2.609375 C 5.8403575,10.632667 5.7735189,10.191763 5.8027344,9.7265625 5.9336539,7.6318502 7.6318502,5.9336539 9.7265625,5.8027344 10.191014,5.7735189 10.630989,5.8405565 11.054688,5.9511719 L 12.623047,4.3828125 C 11.772493,4.1625583 10.896915,4.0390625 10,4.0390625 Z m 6.658203,2.296875 -2.609375,2.609375 c 0.11047,0.4234395 0.177611,0.8635927 0.148438,1.3281255 -0.135011,2.090621 -1.833207,3.788817 -3.923828,3.923828 -0.4644524,0.02921 -0.9044274,-0.03782 -1.3281255,-0.148438 l -1.5683594,1.56836 c 0.8505534,0.220254 1.7261315,0.34375 2.6230469,0.34375 3.821213,0 7.286728,-2.090604 9.84375,-5.486329 0.208653,-0.278204 0.208653,-0.6671081 0,-0.9453121 C 18.897406,8.2710376 17.825358,7.1959401 16.658203,6.3359375 Z"
   style="fill:#ffffff;stroke-width:0.04091235" />
</g><g
           style="fill:#ffffff"
           id="g835">
</g><g
           style="fill:#ffffff"
           id="g837">
</g><g
           style="fill:#ffffff"
           id="g839">
</g><g
           style="fill:#ffffff"
           id="g841">
</g><g
           style="fill:#ffffff"
           id="g843">
</g><g
           style="fill:#ffffff"
           id="g845">
</g><g
           style="fill:#ffffff"
           id="g847">
</g><g
           style="fill:#ffffff"
           id="g849">
</g><g
           style="fill:#ffffff"
           id="g851">
</g><g
           style="fill:#ffffff"
           id="g853">
</g><g
           style="fill:#ffffff"
           id="g855">
</g><g
           style="fill:#ffffff"
           id="g857">
</g><g
           style="fill:#ffffff"
           id="g859">
</g><g
           style="fill:#ffffff"
           id="g861">
</g><g
           style="fill:#ffffff"
           id="g863">
</g></g><path
         style="color:#000000;font-style:normal;font-variant:normal;font-weight:normal;font-stretch:normal;font-size:medium;line-height:normal;font-family:sans-serif;font-variant-ligatures:normal;font-variant-position:normal;font-variant-caps:normal;font-variant-numeric:normal;font-variant-alternates:normal;font-feature-settings:normal;text-indent:0;text-align:start;text-decoration:none;text-decoration-line:none;text-decoration-style:solid;text-decoration-color:#000000;letter-spacing:normal;word-spacing:normal;text-transform:none;writing-mode:lr-tb;direction:ltr;text-orientation:mixed;dominant-baseline:auto;baseline-shift:baseline;text-anchor:start;white-space:normal;shape-padding:0;clip-rule:nonzero;display:inline;overflow:visible;visibility:visible;opacity:1;isolation:auto;mix-blend-mode:normal;color-interpolation:sRGB;color-interpolation-filters:linearRGB;solid-color:#000000;solid-opacity:1;vector-effect:none;fill:#ffffff;fill-opacity:1;fill-rule:nonzero;stroke:none;stroke-width:2.21700001;stroke-linecap:round;stroke-linejoin:round;stroke-miterlimit:4;stroke-dasharray:none;stroke-dashoffset:0;stroke-opacity:1;color-rendering:auto;image-rendering:auto;shape-rendering:auto;text-rendering:auto;enable-background:accumulate"
         d="m 16.291016,2.6718748 a 1.0084764,1.0084764 0 0 0 -0.69336,0.3046875 L 2.976562,15.597656 a 1.0084764,1.0084764 0 1 0 1.4257814,1.425782 L 17.023438,4.4023436 A 1.0084764,1.0084764 0 0 0 16.291016,2.6718748 Z"
         id="path845"
         inkscape:connector-curvature="0" /></g></g></svg>