<?xml version="1.0" encoding="UTF-8" standalone="no"?>
<!-- Generator: Adobe Illustrator 16.0.0, SVG Export Plug-In . SVG Version: 6.00 Build 0)  -->

<svg
   xmlns:dc="http://purl.org/dc/elements/1.1/"
   xmlns:cc="http://creativecommons.org/ns#"
   xmlns:rdf="http://www.w3.org/1999/02/22-rdf-syntax-ns#"
   xmlns:svg="http://www.w3.org/2000/svg"
   xmlns="http://www.w3.org/2000/svg"
   xmlns:sodipodi="http://sodipodi.sourceforge.net/DTD/sodipodi-0.dtd"
   xmlns:inkscape="http://www.inkscape.org/namespaces/inkscape"
   version="1.1"
   id="Capa_1"
   x="0px"
   y="0px"
   width="20"
   height="20"
   viewBox="0 0 20.000001 20.000001"
   xml:space="preserve"
   sodipodi:docname="pass_show.svg"
   inkscape:version="0.92.3 (2405546, 2018-03-11)"><metadata
     id="metadata41"><rdf:RDF><cc:Work
         rdf:about=""><dc:format>image/svg+xml</dc:format><dc:type
           rdf:resource="http://purl.org/dc/dcmitype/StillImage" /><dc:title></dc:title></cc:Work></rdf:RDF></metadata><defs
     id="defs39" /><sodipodi:namedview
     pagecolor="#ffffff"
     bordercolor="#666666"
     borderopacity="1"
     objecttolerance="10"
     gridtolerance="10"
     guidetolerance="10"
     inkscape:pageopacity="0"
     inkscape:pageshadow="2"
     inkscape:window-width="1366"
     inkscape:window-height="705"
     id="namedview37"
     showgrid="false"
     fit-margin-top="0"
     fit-margin-left="0"
     fit-margin-right="0"
     fit-margin-bottom="0"
     inkscape:zoom="13.283825"
     inkscape:cx="7.5512732"
     inkscape:cy="5.0012518"
     inkscape:window-x="-8"
     inkscape:window-y="1072"
     inkscape:window-maximized="1"
     inkscape:current-layer="Capa_1" /><g
     id="g4"
     style="fill:#000000"
     transform="matrix(0.04978822,0,0,0.04978822,0.2098147,-0.01475521)" /><g
     id="g6"
     transform="translate(-35.956,-381.99799)" /><g
     id="g8"
     transform="translate(-35.956,-381.99799)" /><g
     id="g10"
     transform="translate(-35.956,-381.99799)" /><g
     id="g12"
     transform="translate(-35.956,-381.99799)" /><g
     id="g14"
     transform="translate(-35.956,-381.99799)" /><g
     id="g16"
     transform="translate(-35.956,-381.99799)" /><g
     id="g18"
     transform="translate(-35.956,-381.99799)" /><g
     id="g20"
     transform="translate(-35.956,-381.99799)" /><g
     id="g22"
     transform="translate(-35.956,-381.99799)" /><g
     id="g24"
     transform="translate(-35.956,-381.99799)" /><g
     id="g26"
     transform="translate(-35.956,-381.99799)" /><g
     id="g28"
     transform="translate(-35.956,-381.99799)" /><g
     id="g30"
     transform="translate(-35.956,-381.99799)" /><g
     id="g32"
     transform="translate(-35.956,-381.99799)" /><g
     id="g34"
     transform="translate(-35.956,-381.99799)" /><g
     id="g889"
     transform="matrix(0.04091235,0,0,0.04091235,-1.14875e-6,-1.14875e-6)"
     style="fill:#ffffff"><g
       id="g833"
       style="fill:#ffffff">
	<path
   id="path831"
   d="m 244.425,98.725 c -93.4,0 -178.1,51.1 -240.6,134.1 -5.1,6.8 -5.1,16.3 0,23.1 62.5,83.1 147.2,134.2 240.6,134.2 93.4,0 178.1,-51.1 240.6,-134.1 5.1,-6.8 5.1,-16.3 0,-23.1 -62.5,-83.1 -147.2,-134.2 -240.6,-134.2 z m 6.7,248.3 c -62,3.9 -113.2,-47.2 -109.3,-109.3 3.2,-51.2 44.7,-92.7 95.9,-95.9 62,-3.9 113.2,47.2 109.3,109.3 -3.3,51.1 -44.8,92.6 -95.9,95.9 z"
   inkscape:connector-curvature="0"
   sodipodi:nodetypes="sccsccsccccc"
   style="fill:#ffffff" />
</g><g
       id="g835"
       style="fill:#ffffff">
</g><g
       id="g837"
       style="fill:#ffffff">
</g><g
       id="g839"
       style="fill:#ffffff">
</g><g
       id="g841"
       style="fill:#ffffff">
</g><g
       id="g843"
       style="fill:#ffffff">
</g><g
       id="g845"
       style="fill:#ffffff">
</g><g
       id="g847"
       style="fill:#ffffff">
</g><g
       id="g849"
       style="fill:#ffffff">
</g><g
       id="g851"
       style="fill:#ffffff">
</g><g
       id="g853"
       style="fill:#ffffff">
</g><g
       id="g855"
       style="fill:#ffffff">
</g><g
       id="g857"
       style="fill:#ffffff">
</g><g
       id="g859"
       style="fill:#ffffff">
</g><g
       id="g861"
       style="fill:#ffffff">
</g><g
       id="g863"
       style="fill:#ffffff">
</g></g></svg>