<?xml version="1.0" encoding="UTF-8" standalone="no"?>
<!-- Generator: Adobe Illustrator 16.0.0, SVG Export Plug-In . SVG Version: 6.00 Build 0)  -->

<svg
   xmlns:dc="http://purl.org/dc/elements/1.1/"
   xmlns:cc="http://creativecommons.org/ns#"
   xmlns:rdf="http://www.w3.org/1999/02/22-rdf-syntax-ns#"
   xmlns:svg="http://www.w3.org/2000/svg"
   xmlns="http://www.w3.org/2000/svg"
   xmlns:sodipodi="http://sodipodi.sourceforge.net/DTD/sodipodi-0.dtd"
   xmlns:inkscape="http://www.inkscape.org/namespaces/inkscape"
   version="1.1"
   id="Capa_1"
   x="0px"
   y="0px"
   width="25"
   height="25"
   viewBox="0 0 25.000001 25.000002"
   xml:space="preserve"
   sodipodi:docname="save.svg"
   inkscape:version="0.92.3 (2405546, 2018-03-11)"><metadata
     id="metadata41"><rdf:RDF><cc:Work
         rdf:about=""><dc:format>image/svg+xml</dc:format><dc:type
           rdf:resource="http://purl.org/dc/dcmitype/StillImage" /><dc:title></dc:title></cc:Work></rdf:RDF></metadata><defs
     id="defs39"><pattern
       y="0"
       x="0"
       height="6"
       width="6"
       patternUnits="userSpaceOnUse"
       id="EMFhbasepattern" /></defs><sodipodi:namedview
     pagecolor="#ffffff"
     bordercolor="#666666"
     borderopacity="1"
     objecttolerance="10"
     gridtolerance="10"
     guidetolerance="10"
     inkscape:pageopacity="0"
     inkscape:pageshadow="2"
     inkscape:window-width="1366"
     inkscape:window-height="705"
     id="namedview37"
     showgrid="false"
     inkscape:zoom="17.221052"
     inkscape:cx="14.512179"
     inkscape:cy="9.6910002"
     inkscape:window-x="-8"
     inkscape:window-y="1072"
     inkscape:window-maximized="1"
     inkscape:current-layer="g866"
     units="px" /><g
     id="g6"
     transform="translate(0,-413.53299)" /><g
     id="g8"
     transform="translate(0,-413.53299)" /><g
     id="g10"
     transform="translate(0,-413.53299)" /><g
     id="g12"
     transform="translate(0,-413.53299)" /><g
     id="g14"
     transform="translate(0,-413.53299)" /><g
     id="g16"
     transform="translate(0,-413.53299)" /><g
     id="g18"
     transform="translate(0,-413.53299)" /><g
     id="g20"
     transform="translate(0,-413.53299)" /><g
     id="g22"
     transform="translate(0,-413.53299)" /><g
     id="g24"
     transform="translate(0,-413.53299)" /><g
     id="g26"
     transform="translate(0,-413.53299)" /><g
     id="g28"
     transform="translate(0,-413.53299)" /><g
     id="g30"
     transform="translate(0,-413.53299)" /><g
     id="g32"
     transform="translate(0,-413.53299)" /><g
     id="g34"
     transform="translate(0,-413.53299)" /><g
     id="g866"
     style="fill:#ffffff"><g
       transform="matrix(0.03601215,0,0,0.03601215,4.4671071,4.58)"
       style="fill:#ffffff"
       id="g4"><path
         style="fill:#ffffff"
         sodipodi:nodetypes="ccccccccccccccccccccccccccc"
         inkscape:connector-curvature="0"
         id="path2"
         d="m 367.477,-0.292 c 0,0 -262.12728,0.14294542 -367.35901903,0.0590702 C 0.23652053,-0.1077609 0.003,438.99886 0.003,438.99886 l 438.528,-0.40235 V 76.178 Z M 136.725,35.677 h 127.09 v 99.362 H 136.725 Z M 402,401.991 h -60.552 -0.007 V 247.218 H 99.089 V 401.991 H 36.544 V 36.542 h 60.544 l 2,130.771 H 300.357 V 36.542 L 353.493,36.409546 401.999,90.178 v 311.813 z" /></g><path
       inkscape:connector-curvature="0"
       style="fill:#ffffff;fill-opacity:1;fill-rule:nonzero;stroke:none"
       d="m 1.7547292,0.0134 c -0.95999293,0 -1.75998708,0.8 -1.75998708,1.76 v 0 21.3598 0 c 0,1.04 0.79999415,1.84 1.75998708,1.84 v 0 H 23.114571 v 0 c 1.039992,0 1.839986,-0.8 1.839986,-1.84 v 0 -21.3598 0 c 0,-0.96 -0.799994,-1.76 -1.839986,-1.76 v 0 z m 0.9599929,1.04 H 22.234577 c 0.879994,0 1.599988,0.8 1.599988,1.68 v 19.5198 0 c 0,0.88 -0.719994,1.6 -1.599988,1.6 H 2.7147221 c -0.8799935,0 -1.6799876,-0.72 -1.6799876,-1.6 v 0 -19.5198 c 0,-0.88 0.7999941,-1.68 1.6799876,-1.68 z"
       id="path850" /></g></svg>