<?xml version="1.0" encoding="UTF-8" standalone="no"?>
<!-- Generator: Adobe Illustrator 16.0.0, SVG Export Plug-In . SVG Version: 6.00 Build 0)  -->

<svg
   xmlns:dc="http://purl.org/dc/elements/1.1/"
   xmlns:cc="http://creativecommons.org/ns#"
   xmlns:rdf="http://www.w3.org/1999/02/22-rdf-syntax-ns#"
   xmlns:svg="http://www.w3.org/2000/svg"
   xmlns="http://www.w3.org/2000/svg"
   xmlns:sodipodi="http://sodipodi.sourceforge.net/DTD/sodipodi-0.dtd"
   xmlns:inkscape="http://www.inkscape.org/namespaces/inkscape"
   version="1.1"
   id="Capa_1"
   x="0px"
   y="0px"
   width="25"
   height="25"
   viewBox="0 0 25.000001 25.000001"
   xml:space="preserve"
   sodipodi:docname="snowmix.svg"
   inkscape:version="0.92.3 (2405546, 2018-03-11)"><metadata
     id="metadata41"><rdf:RDF><cc:Work
         rdf:about=""><dc:format>image/svg+xml</dc:format><dc:type
           rdf:resource="http://purl.org/dc/dcmitype/StillImage" /><dc:title></dc:title></cc:Work></rdf:RDF></metadata><defs
     id="defs39" /><sodipodi:namedview
     pagecolor="#ffffff"
     bordercolor="#666666"
     borderopacity="1"
     objecttolerance="10"
     gridtolerance="10"
     guidetolerance="10"
     inkscape:pageopacity="0"
     inkscape:pageshadow="2"
     inkscape:window-width="1920"
     inkscape:window-height="1017"
     id="namedview37"
     showgrid="false"
     fit-margin-top="0"
     fit-margin-left="0"
     fit-margin-right="0"
     fit-margin-bottom="0"
     inkscape:zoom="5.6568543"
     inkscape:cx="-3.0231524"
     inkscape:cy="-10.080465"
     inkscape:window-x="-4"
     inkscape:window-y="-8"
     inkscape:window-maximized="1"
     inkscape:current-layer="g842"
     showguides="true"
     inkscape:guide-bbox="true" /><g
     id="g6"
     transform="translate(-36.020453,-376.98627)" /><g
     id="g8"
     transform="translate(-36.020453,-376.98627)" /><g
     id="g10"
     transform="translate(-36.020453,-376.98627)" /><g
     id="g12"
     transform="translate(-36.020453,-376.98627)" /><g
     id="g14"
     transform="translate(-36.020453,-376.98627)" /><g
     id="g16"
     transform="translate(-36.020453,-376.98627)" /><g
     id="g18"
     transform="translate(-36.020453,-376.98627)" /><g
     id="g20"
     transform="translate(-36.020453,-376.98627)" /><g
     id="g22"
     transform="translate(-36.020453,-376.98627)" /><g
     id="g24"
     transform="translate(-36.020453,-376.98627)" /><g
     id="g26"
     transform="translate(-36.020453,-376.98627)" /><g
     id="g28"
     transform="translate(-36.020453,-376.98627)" /><g
     id="g30"
     transform="translate(-36.020453,-376.98627)" /><g
     id="g32"
     transform="translate(-36.020453,-376.98627)" /><g
     id="g34"
     transform="translate(-36.020453,-376.98627)" /><g
     id="g840"
     style="fill:#000000"
     transform="translate(-0.06445313,5.0117188)"><g
       transform="matrix(1.0054344,0,0,1.0054344,-0.05520384,-0.05563052)"
       id="g981"
       style="fill:#000000"><g
         id="g844"
         transform="matrix(0.05055527,-0.0010943,0.0016838,0.07778952,10.299454,9.260829)"
         style="fill:#000000"><g
           id="g899"
           style="fill:#000000"><g
             style="fill:#000000"
             id="g843"
             transform="matrix(19.771068,0.27812847,-0.42795642,12.849182,-199.66798,-121.85865)"><g
               transform="matrix(0.79748995,0,0,0.79756807,0.06760949,0.00571872)"
               style="fill:#000000;fill-opacity:1"
               id="g842"><path
                 style="color:#000000;font-style:normal;font-variant:normal;font-weight:normal;font-stretch:normal;font-size:medium;line-height:normal;font-family:sans-serif;font-variant-ligatures:normal;font-variant-position:normal;font-variant-caps:normal;font-variant-numeric:normal;font-variant-alternates:normal;font-feature-settings:normal;text-indent:0;text-align:start;text-decoration:none;text-decoration-line:none;text-decoration-style:solid;text-decoration-color:#000000;letter-spacing:normal;word-spacing:normal;text-transform:none;writing-mode:lr-tb;direction:ltr;text-orientation:mixed;dominant-baseline:auto;baseline-shift:baseline;text-anchor:start;white-space:normal;shape-padding:0;clip-rule:nonzero;display:inline;overflow:visible;visibility:visible;opacity:1;isolation:auto;mix-blend-mode:normal;color-interpolation:sRGB;color-interpolation-filters:linearRGB;solid-color:#000000;solid-opacity:1;vector-effect:none;fill:#ffffff;fill-opacity:1;fill-rule:nonzero;stroke:none;stroke-width:2.83931398;stroke-linecap:butt;stroke-linejoin:miter;stroke-miterlimit:4;stroke-dasharray:none;stroke-dashoffset:0;stroke-opacity:1;paint-order:fill markers stroke;color-rendering:auto;image-rendering:auto;shape-rendering:auto;text-rendering:auto;enable-background:accumulate"
                 d="m 15.650868,-6.1875834 c -8.5926937,0 -15.58641457,6.99523868 -15.58641457,15.5879331 10e-9,8.5926933 6.99372087,15.5879313 15.58641457,15.5879313 8.592694,0 15.592504,-6.995238 15.592504,-15.5879313 0,-8.59269442 -6.99981,-15.5879331 -15.592504,-15.5879331 z m -0.09743,1.4309235 A 14.176666,14.175276 2.1278586e-4 0 1 29.730099,9.4186159 14.176666,14.175276 2.1278586e-4 0 1 15.553434,23.593892 14.176666,14.175276 2.1278586e-4 0 1 1.3767693,9.4186159 14.176666,14.175276 2.1278586e-4 0 1 15.553434,-4.7566599 Z"
                 id="path831"
                 inkscape:connector-curvature="0" /></g></g><g
             id="g887"
             style="fill:#ffffff"
             transform="matrix(1.25,0,0,1.25,51.461636,-33.582567)"><path
               style="fill:#ffffff;fill-opacity:1;stroke-width:1.27662861"
               d="m -121.41826,56.078788 c -17.20611,-0.407078 -17.83123,-18.255877 1.89678,-18.229448 19.728019,0.02643 28.692137,0.950529 32.654633,-4.247944 3.962495,-5.198472 34.487828,-61.17588 40.469012,-71.684031 5.981184,-10.508152 33.269482,-6.08537 27.168571,4.932637 -6.100912,11.018007 -27.535377,51.374192 -39.098321,70.745703 -11.562944,19.371512 -21.075584,18.898036 -33.302659,18.906207 -12.227076,0.0082 -12.581906,-0.01605 -29.788016,-0.423124 z"
               id="path850"
               inkscape:connector-curvature="0"
               sodipodi:nodetypes="zzzzzzzz" /><path
               style="fill:#ffffff;fill-opacity:1;stroke-width:1.27662861"
               d="m 109.14061,-42.304212 c 17.20612,0.407076 17.83124,18.255876 -1.89677,18.22945 -19.728028,-0.02638 -28.692138,-0.950526 -32.654632,4.247947 C 70.626704,-14.628342 40.101374,41.34906 34.120189,51.857214 28.139003,62.365367 0.85070591,57.942579 6.9516188,46.924574 13.052532,35.906568 34.486996,-4.4496163 46.049934,-23.821126 57.612881,-43.192636 67.125523,-42.719164 79.3526,-42.727337 c 12.227074,-0.0087 12.581896,0.01608 29.78801,0.423125 z"
               id="path850-3"
               inkscape:connector-curvature="0"
               sodipodi:nodetypes="czzzzzzc" /><path
               style="fill:#ffffff;fill-opacity:1;stroke-width:1.27662861"
               d="m 31.725809,-31.242474 c -7.498437,11.684514 -41.1336085,72.233638 -47.114794,82.741792 -5.981195,10.508154 -33.269492,6.085366 -27.168579,-4.93264 6.100913,-11.018005 34.181155,-62.431953 45.7441009,-81.803463 8.9396321,-15.392207 36.0377101,-7.690202 28.5392721,3.994311 z"
               id="path850-3-4"
               inkscape:connector-curvature="0"
               sodipodi:nodetypes="zzzcz" /></g></g></g></g></g></svg>