<?xml version="1.0" encoding="UTF-8" standalone="no"?>
<svg
   xmlns:dc="http://purl.org/dc/elements/1.1/"
   xmlns:cc="http://creativecommons.org/ns#"
   xmlns:rdf="http://www.w3.org/1999/02/22-rdf-syntax-ns#"
   xmlns:svg="http://www.w3.org/2000/svg"
   xmlns="http://www.w3.org/2000/svg"
   xmlns:sodipodi="http://sodipodi.sourceforge.net/DTD/sodipodi-0.dtd"
   xmlns:inkscape="http://www.inkscape.org/namespaces/inkscape"
   version="1.1"
   viewBox="0 0 25 25"
   enable-background="new 0 0 24 24"
   id="svg8"
   sodipodi:docname="suicide.svg"
   inkscape:version="0.92.3 (2405546, 2018-03-11)"
   width="25"
   height="25">
  <metadata
     id="metadata14">
    <rdf:RDF>
      <cc:Work
         rdf:about="">
        <dc:format>image/svg+xml</dc:format>
        <dc:type
           rdf:resource="http://purl.org/dc/dcmitype/StillImage" />
        <dc:title></dc:title>
      </cc:Work>
    </rdf:RDF>
  </metadata>
  <defs
     id="defs12" />
  <sodipodi:namedview
     pagecolor="#ffffff"
     bordercolor="#666666"
     borderopacity="1"
     objecttolerance="10"
     gridtolerance="10"
     guidetolerance="10"
     inkscape:pageopacity="0"
     inkscape:pageshadow="2"
     inkscape:window-width="1366"
     inkscape:window-height="705"
     id="namedview10"
     showgrid="false"
     inkscape:zoom="9.833333"
     inkscape:cx="25.76018"
     inkscape:cy="6.635916"
     inkscape:window-x="-8"
     inkscape:window-y="1072"
     inkscape:window-maximized="1"
     inkscape:current-layer="g845" />
  <g
     transform="matrix(0.90758345,0,0,0.68067952,-6.5616482,0.03403543)"
     id="g845"
     style="fill:#000000">
    <g
       id="g830"
       transform="translate(0.3736532,0.01218093)"
       style="fill:#000000" />
    <g
       id="g951">
      <path
         style="color:#000000;font-style:normal;font-variant:normal;font-weight:normal;font-stretch:normal;font-size:medium;line-height:normal;font-family:sans-serif;font-variant-ligatures:normal;font-variant-position:normal;font-variant-caps:normal;font-variant-numeric:normal;font-variant-alternates:normal;font-feature-settings:normal;text-indent:0;text-align:start;text-decoration:none;text-decoration-line:none;text-decoration-style:solid;text-decoration-color:#000000;letter-spacing:normal;word-spacing:normal;text-transform:none;writing-mode:lr-tb;direction:ltr;text-orientation:mixed;dominant-baseline:auto;baseline-shift:baseline;text-anchor:start;white-space:normal;shape-padding:0;clip-rule:nonzero;display:inline;overflow:visible;visibility:visible;opacity:1;isolation:auto;mix-blend-mode:normal;color-interpolation:sRGB;color-interpolation-filters:linearRGB;solid-color:#000000;solid-opacity:1;vector-effect:none;fill:#ffffff;fill-opacity:1;fill-rule:nonzero;stroke:none;stroke-width:2.2683785;stroke-linecap:butt;stroke-linejoin:round;stroke-miterlimit:4;stroke-dasharray:none;stroke-dashoffset:0;stroke-opacity:1;paint-order:fill markers stroke;color-rendering:auto;image-rendering:auto;shape-rendering:auto;text-rendering:auto;enable-background:accumulate"
         d="M 9.227939,-0.00268912 C 8.1546724,-0.00122158 7.2664102,1.1831423 7.2653095,2.614181 v 0.00286 31.396703 0.0029 c 0.0011,1.431042 0.8917728,2.612534 1.9626295,2.614001 0,0 0.00215,0 0.00215,0 h 23.545098 c 0,0 0.0022,0 0.0022,0 1.070854,-0.0015 1.961527,-1.182962 1.96263,-2.614001 0,0 0,-0.0029 0,-0.0029 V 2.6170503 c 0,0 0,-0.00286 0,-0.00286 -0.0011,-1.4310362 -0.889363,-2.61540213 -1.96263,-2.61687006 h -0.0022 -23.5450961 z m 1.017899,1.58102562 h 21.513603 c 0.980579,0.00134 1.793766,1.0856071 1.794773,2.393059 V 32.656541 c 0,0 0,0.0029 0,0.0029 -0.001,1.307454 -0.816398,2.38885 -1.794773,2.39019 H 10.245838 C 9.2674605,35.04826 8.4520708,33.966867 8.4510648,32.65941 V 32.65651 3.9714335 c 0.00101,-1.3074541 0.8141938,-2.3917182 1.7947732,-2.393059 z"
         id="rect829-1"
         inkscape:connector-curvature="0" />
      <path
         inkscape:connector-curvature="0"
         id="rect818"
         transform="matrix(1.1018271,0,0,1.4691202,7.2298015,-0.05000214)"
         d="M 8.7851562,5.5449219 V 7.2558594 H 6.0527344 v 8.0214846 h 2.3613281 v 4.207031 h 1.6074215 v -4.207031 h 1.675782 v 4.207031 h 1.605468 v -4.207031 h 1.675782 v 4.207031 h 1.607422 v -4.207031 h 2.361328 V 7.2558594 H 16.214844 V 5.5449219 Z M 8.4375,9.9121094 h 2.949219 V 12.861328 H 8.4375 Z m 5.224609,0 h 2.949219 v 2.9492186 h -2.949219 z"
         style="opacity:1;vector-effect:none;fill:#ffffff;fill-opacity:1;stroke:none;stroke-width:1.57047188;stroke-linecap:round;stroke-linejoin:round;stroke-miterlimit:4;stroke-dasharray:none;stroke-dashoffset:0;stroke-opacity:1;paint-order:fill markers stroke" />
      <g
         id="g895"
         transform="translate(0.03173642)"
         style="fill:#ffffff" />
      <g
         style="fill:#ffffff"
         id="g931" />
    </g>
  </g>
</svg>
