<?xml version="1.0" encoding="UTF-8" standalone="no"?>
<!-- Generator: Adobe Illustrator 18.0.0, SVG Export Plug-In . SVG Version: 6.00 Build 0)  -->

<svg
   xmlns:dc="http://purl.org/dc/elements/1.1/"
   xmlns:cc="http://creativecommons.org/ns#"
   xmlns:rdf="http://www.w3.org/1999/02/22-rdf-syntax-ns#"
   xmlns:svg="http://www.w3.org/2000/svg"
   xmlns="http://www.w3.org/2000/svg"
   xmlns:sodipodi="http://sodipodi.sourceforge.net/DTD/sodipodi-0.dtd"
   xmlns:inkscape="http://www.inkscape.org/namespaces/inkscape"
   version="1.1"
   id="Capa_1"
   x="0px"
   y="0px"
   viewBox="0 0 20 20"
   xml:space="preserve"
   sodipodi:docname="sincronizar.svg"
   width="20"
   height="20"
   inkscape:version="0.92.2 (5c3e80d, 2017-08-06)"><metadata
     id="metadata45"><rdf:RDF><cc:Work
         rdf:about=""><dc:format>image/svg+xml</dc:format><dc:type
           rdf:resource="http://purl.org/dc/dcmitype/StillImage" /><dc:title></dc:title></cc:Work></rdf:RDF></metadata><defs
     id="defs43" /><sodipodi:namedview
     pagecolor="#ffffff"
     bordercolor="#666666"
     borderopacity="1"
     objecttolerance="10"
     gridtolerance="10"
     guidetolerance="10"
     inkscape:pageopacity="0"
     inkscape:pageshadow="2"
     inkscape:window-width="1366"
     inkscape:window-height="705"
     id="namedview41"
     showgrid="false"
     inkscape:zoom="1.438237"
     inkscape:cx="-36.88098"
     inkscape:cy="-13.711346"
     inkscape:window-x="-8"
     inkscape:window-y="1072"
     inkscape:window-maximized="1"
     inkscape:current-layer="g8"
     showguides="true"
     inkscape:guide-bbox="true" /><g
     id="g8"
     transform="translate(0,-212.058)"><g
       id="g847"
       style="fill:#ffffff;fill-opacity:1"
       transform="matrix(0.80182383,0,0,0.80190237,-0.02279785,45.993923)"><path
         sodipodi:nodetypes="ssccscccscscccsscc"
         inkscape:connector-curvature="0"
         id="path830"
         d="m 12.515625,212.04128 c -4.1294357,0 -7.5010963,3.37166 -7.5010963,7.50109 0,1.07539 0.2313356,2.09822 0.6432721,3.02432 l 1.879566,-1.43523 c -0.159607,-0.50035 -0.2467488,-1.03379 -0.2467488,-1.58909 0,-2.89907 2.325937,-5.225 5.225007,-5.225 l 0.0031,3.0614 4.707905,-3.6613 c -1.289716,-1.04572 -2.928964,-1.67619 -4.710976,-1.67619 z m 5.013344,6.03056 c 0.13702,0.46565 0.211663,0.9585 0.211663,1.47053 0,2.89907 -2.472279,5.23096 -5.225007,5.22501 l -0.0031,-2.89415 -4.6337233,3.55051 c 1.2784339,1.01082 2.8881273,1.61973 4.6368703,1.61973 4.129436,0 7.501096,-3.37166 7.501096,-7.5011 0,-1.03992 -0.21799,-2.02959 -0.605182,-2.93098 z"
         style="color:#000000;font-style:normal;font-variant:normal;font-weight:normal;font-stretch:normal;font-size:medium;line-height:normal;font-family:sans-serif;font-variant-ligatures:normal;font-variant-position:normal;font-variant-caps:normal;font-variant-numeric:normal;font-variant-alternates:normal;font-feature-settings:normal;text-indent:0;text-align:start;text-decoration:none;text-decoration-line:none;text-decoration-style:solid;text-decoration-color:#000000;letter-spacing:normal;word-spacing:normal;text-transform:none;writing-mode:lr-tb;direction:ltr;text-orientation:mixed;dominant-baseline:auto;baseline-shift:baseline;text-anchor:start;white-space:normal;shape-padding:0;clip-rule:nonzero;display:inline;overflow:visible;visibility:visible;opacity:1;isolation:auto;mix-blend-mode:normal;color-interpolation:sRGB;color-interpolation-filters:linearRGB;solid-color:#000000;solid-opacity:1;vector-effect:none;fill:#ffffff;fill-opacity:1;fill-rule:nonzero;stroke:none;stroke-width:2.27659965;stroke-linecap:butt;stroke-linejoin:miter;stroke-miterlimit:4;stroke-dasharray:none;stroke-dashoffset:0;stroke-opacity:1;paint-order:fill markers stroke;color-rendering:auto;image-rendering:auto;shape-rendering:auto;text-rendering:auto;enable-background:accumulate" /><g
         style="fill:#ffffff;fill-opacity:1"
         id="g842"
         transform="translate(-0.03602056,207.04006)"><path
           style="color:#000000;font-style:normal;font-variant:normal;font-weight:normal;font-stretch:normal;font-size:medium;line-height:normal;font-family:sans-serif;font-variant-ligatures:normal;font-variant-position:normal;font-variant-caps:normal;font-variant-numeric:normal;font-variant-alternates:normal;font-feature-settings:normal;text-indent:0;text-align:start;text-decoration:none;text-decoration-line:none;text-decoration-style:solid;text-decoration-color:#000000;letter-spacing:normal;word-spacing:normal;text-transform:none;writing-mode:lr-tb;direction:ltr;text-orientation:mixed;dominant-baseline:auto;baseline-shift:baseline;text-anchor:start;white-space:normal;shape-padding:0;clip-rule:nonzero;display:inline;overflow:visible;visibility:visible;opacity:1;isolation:auto;mix-blend-mode:normal;color-interpolation:sRGB;color-interpolation-filters:linearRGB;solid-color:#000000;solid-opacity:1;vector-effect:none;fill:#ffffff;fill-opacity:1;fill-rule:nonzero;stroke:none;stroke-width:2.27145123;stroke-linecap:butt;stroke-linejoin:miter;stroke-miterlimit:4;stroke-dasharray:none;stroke-dashoffset:0;stroke-opacity:1;paint-order:fill markers stroke;color-rendering:auto;image-rendering:auto;shape-rendering:auto;text-rendering:auto;enable-background:accumulate"
           d="m 12.534799,0.04758908 c -6.8741551,0 -12.47034588,5.59619092 -12.47034588,12.47034592 0,6.874155 5.59619078,12.470346 12.47034588,12.470346 6.874155,0 12.472789,-5.596191 12.472789,-12.470346 0,-6.874155 -5.598634,-12.47034592 -12.472789,-12.47034592 z m 0,2.26977902 c 5.646572,0 10.200567,4.5539954 10.200567,10.2005669 0,5.646573 -4.553995,10.198124 -10.200567,10.198124 -5.6465717,0 -10.1981237,-4.551551 -10.1981237,-10.198124 0,-5.6465715 4.551552,-10.2005669 10.1981237,-10.2005669 z"
           id="path831"
           inkscape:connector-curvature="0" /></g></g></g><g
     id="g10"
     transform="translate(0,-212.058)" /><g
     id="g12"
     transform="translate(0,-212.058)" /><g
     id="g14"
     transform="translate(0,-212.058)" /><g
     id="g16"
     transform="translate(0,-212.058)" /><g
     id="g18"
     transform="translate(0,-212.058)" /><g
     id="g20"
     transform="translate(0,-212.058)" /><g
     id="g22"
     transform="translate(0,-212.058)" /><g
     id="g24"
     transform="translate(0,-212.058)" /><g
     id="g26"
     transform="translate(0,-212.058)" /><g
     id="g28"
     transform="translate(0,-212.058)" /><g
     id="g30"
     transform="translate(0,-212.058)" /><g
     id="g32"
     transform="translate(0,-212.058)" /><g
     id="g34"
     transform="translate(0,-212.058)" /><g
     id="g36"
     transform="translate(0,-212.058)" /><g
     id="g38"
     transform="translate(0,-212.058)" /></svg>