<?xml version="1.0" encoding="UTF-8" standalone="no"?>
<!-- Generator: Adobe Illustrator 16.0.0, SVG Export Plug-In . SVG Version: 6.00 Build 0)  -->

<svg
   xmlns:dc="http://purl.org/dc/elements/1.1/"
   xmlns:cc="http://creativecommons.org/ns#"
   xmlns:rdf="http://www.w3.org/1999/02/22-rdf-syntax-ns#"
   xmlns:svg="http://www.w3.org/2000/svg"
   xmlns="http://www.w3.org/2000/svg"
   xmlns:sodipodi="http://sodipodi.sourceforge.net/DTD/sodipodi-0.dtd"
   xmlns:inkscape="http://www.inkscape.org/namespaces/inkscape"
   version="1.1"
   id="Capa_1"
   x="0px"
   y="0px"
   width="25"
   height="25"
   viewBox="0 0 24.999999 25"
   xml:space="preserve"
   sodipodi:docname="user.svg"
   inkscape:version="0.92.3 (2405546, 2018-03-11)"><metadata
     id="metadata45"><rdf:RDF><cc:Work
         rdf:about=""><dc:format>image/svg+xml</dc:format><dc:type
           rdf:resource="http://purl.org/dc/dcmitype/StillImage" /><dc:title></dc:title></cc:Work></rdf:RDF></metadata><defs
     id="defs43" /><sodipodi:namedview
     pagecolor="#ffffff"
     bordercolor="#666666"
     borderopacity="1"
     objecttolerance="10"
     gridtolerance="10"
     guidetolerance="10"
     inkscape:pageopacity="0"
     inkscape:pageshadow="2"
     inkscape:window-width="1920"
     inkscape:window-height="1017"
     id="namedview41"
     showgrid="false"
     inkscape:zoom="9.2285736"
     inkscape:cx="-6.5686086"
     inkscape:cy="11.65815"
     inkscape:window-x="-4"
     inkscape:window-y="-8"
     inkscape:window-maximized="1"
     inkscape:current-layer="g841" /><g
     id="g10"
     transform="translate(0,-384.164)" /><g
     id="g12"
     transform="translate(0,-384.164)" /><g
     id="g14"
     transform="translate(0,-384.164)" /><g
     id="g16"
     transform="translate(0,-384.164)" /><g
     id="g18"
     transform="translate(0,-384.164)" /><g
     id="g20"
     transform="translate(0,-384.164)" /><g
     id="g22"
     transform="translate(0,-384.164)" /><g
     id="g24"
     transform="translate(0,-384.164)" /><g
     id="g26"
     transform="translate(0,-384.164)" /><g
     id="g28"
     transform="translate(0,-384.164)" /><g
     id="g30"
     transform="translate(0,-384.164)" /><g
     id="g32"
     transform="translate(0,-384.164)" /><g
     id="g34"
     transform="translate(0,-384.164)" /><g
     id="g36"
     transform="translate(0,-384.164)" /><g
     id="g38"
     transform="translate(0,-384.164)" /><g
     id="g841"
     style="fill:#000000"><g
       transform="matrix(0.06087116,0,0,0.06087116,0.04682718,-0.04854704)"
       style="fill:#ffffff"
       id="g8"><g
         style="fill:#ffffff"
         id="g6"><path
           sodipodi:nodetypes="ssscs"
           style="fill:#ffffff"
           inkscape:connector-curvature="0"
           id="path2"
           d="m 204.583,216.671 c 50.664,0 87.74,-48.075 87.74,-107.378 0,-82.237 -37.074,-107.377 -87.74,-107.377 -50.668,0 -87.74,25.14 -87.74,107.377 10e-4,59.303 37.073,107.378 87.74,107.378 z" /><path
           style="fill:#ffffff"
           sodipodi:nodetypes="czczczcc"
           inkscape:connector-curvature="0"
           id="path4"
           d="m 407.164,410.38264 c 0,0 -36.57453,-107.61492 -46.284,-119.92864 -9.70947,-12.31372 -56.47496,-35.08911 -82.295,-48.53 -21.41776,14.92728 -47.01923,23.76021 -70.93714,23.903 -23.91791,0.14279 -51.82686,-8.122 -72.14286,-23.488 -23.57647,10.41786 -80.085225,33.62388 -87.22,48.115 C 41.150225,304.94512 2.001,410.38264 2.001,410.38264 Z" /></g></g></g></svg>